<svg width="491" height="437" viewBox="0 0 491 437" fill="none" xmlns="http://www.w3.org/2000/svg">
<path d="M265.788 13.7225H271.259C291.933 13.7276 311.759 21.944 326.376 36.5648C340.994 51.1856 349.205 71.0135 349.205 91.6879V240.425H187.799V91.6879C187.799 81.4473 189.816 71.3071 193.736 61.8464C197.655 52.3856 203.4 43.7897 210.643 36.5497C217.885 29.3096 226.483 23.5672 235.945 19.6505C245.407 15.7338 255.547 13.7194 265.788 13.7225Z" fill="#FFB7D5"/>
<path d="M297.806 150.892V242.741H226.185V150.892H297.806ZM299.704 148.993H224.287V244.639H299.704V148.993Z" fill="#CA7358"/>
<path d="M299.704 148.989H224.287V168.761H299.704V148.989Z" fill="#CA7358"/>
<path d="M223.883 101.225V243.201H180.775V101.225H223.883ZM225.781 99.3275H178.877V245.099H225.781V99.3275Z" fill="#CA7358"/>
<path d="M357.009 72.4847V242.741H300.107V72.4847H357.009ZM358.907 70.5867H298.209V244.639H358.907V70.5867Z" fill="#CA7358"/>
<path d="M322.885 93.8091H323.43C325.492 93.8091 327.468 94.6279 328.926 96.0855C330.384 97.5431 331.203 99.52 331.203 101.581V119.1H315.107V101.581C315.107 100.56 315.309 99.5492 315.7 98.6059C316.09 97.6626 316.663 96.8056 317.386 96.0838C318.108 95.362 318.965 94.7896 319.909 94.3993C320.852 94.009 321.863 93.8084 322.885 93.8091Z" fill="#CA7358"/>
<path d="M313.271 107.603H333.044" stroke="#FFB7D5" stroke-width="4" stroke-linecap="round" stroke-linejoin="round"/>
<path d="M322.885 139.181H323.43C325.492 139.181 327.468 140 328.926 141.457C330.384 142.915 331.203 144.892 331.203 146.953V164.472H315.107V146.953C315.107 145.932 315.309 144.921 315.7 143.978C316.09 143.035 316.663 142.178 317.386 141.456C318.108 140.734 318.965 140.162 319.909 139.771C320.852 139.381 321.863 139.18 322.885 139.181Z" fill="#F5EBDD"/>
<path d="M313.271 152.974H333.044" stroke="#FFB7D5" stroke-width="4" stroke-linecap="round" stroke-linejoin="round"/>
<path d="M322.885 184.553H323.43C325.492 184.553 327.468 185.372 328.926 186.829C330.384 188.287 331.203 190.264 331.203 192.325V209.844H315.107V192.325C315.107 190.264 315.926 188.287 317.384 186.829C318.841 185.372 320.818 184.553 322.88 184.553H322.885Z" fill="#F5EBDD"/>
<path d="M313.271 198.346H333.044" stroke="#FFB7D5" stroke-width="4" stroke-linecap="round" stroke-linejoin="round"/>
<path d="M322.885 229.924H323.43C325.492 229.924 327.468 230.743 328.926 232.201C330.384 233.658 331.203 235.635 331.203 237.697V253.792H315.107V237.697C315.107 236.676 315.309 235.664 315.7 234.721C316.09 233.778 316.663 232.921 317.386 232.199C318.108 231.477 318.965 230.905 319.909 230.515C320.852 230.124 321.863 229.924 322.885 229.924Z" fill="#30242A"/>
<path d="M358.907 70.5867H298.209V78.174H358.907V70.5867Z" fill="#CA7358"/>
<path d="M225.781 95.6501H178.877V103.237H225.781V95.6501Z" fill="#CA7358"/>
<path d="M253.949 186.697H237.854V207.39H253.949V186.697Z" fill="#F5EBDD"/>
<path d="M236.012 195.893H255.789" stroke="#FFB7D5" stroke-width="4" stroke-linecap="round" stroke-linejoin="round"/>
<path d="M245.9 208.311V195.893" stroke="#FFB7D5" stroke-width="4" stroke-linecap="round" stroke-linejoin="round"/>
<path d="M253.949 224.069H237.854V244.762H253.949V224.069Z" fill="#CA7358"/>
<path d="M236.012 233.265H255.789" stroke="#FFB7D5" stroke-width="4" stroke-linecap="round" stroke-linejoin="round"/>
<path d="M245.9 245.683V233.265" stroke="#FFB7D5" stroke-width="4" stroke-linecap="round" stroke-linejoin="round"/>
<path d="M284.298 186.697H268.203V207.39H284.298V186.697Z" fill="#30242A"/>
<path d="M266.367 195.893H286.14" stroke="#FFB7D5" stroke-width="4" stroke-linecap="round" stroke-linejoin="round"/>
<path d="M276.25 208.311V195.893" stroke="#FFB7D5" stroke-width="4" stroke-linecap="round" stroke-linejoin="round"/>
<path d="M284.298 224.069H268.203V244.762H284.298V224.069Z" fill="#F5EBDD"/>
<path d="M266.367 233.265H286.14" stroke="#FFB7D5" stroke-width="4" stroke-linecap="round" stroke-linejoin="round"/>
<path d="M276.25 245.683V233.265" stroke="#FFB7D5" stroke-width="4" stroke-linecap="round" stroke-linejoin="round"/>
<path d="M234.977 69.8989C241.581 69.8989 246.934 64.5454 246.934 57.9414C246.934 51.3375 241.581 45.984 234.977 45.984C228.373 45.984 223.02 51.3375 223.02 57.9414C223.02 64.5454 228.373 69.8989 234.977 69.8989Z" fill="#F5EBDD"/>
<path d="M369.898 240.501H167.105V254.295H369.898V240.501Z" fill="#F5EBDD"/>
<path d="M271.705 0H265.314C214.893 0 174.02 40.8736 174.02 91.2941V254.295H363.018V91.2941C363.004 40.8736 322.126 0 271.705 0ZM261.608 240.501H187.799V125.539H261.608V240.501ZM261.608 111.745H187.799V91.7639C187.8 71.8058 195.454 52.6078 209.185 38.1239C222.916 23.6399 241.678 14.9728 261.608 13.9076V111.745ZM349.206 240.501H275.402V125.539H349.206V240.501ZM349.206 111.745H275.402V13.9076C295.331 14.9729 314.093 23.6401 327.823 38.1242C341.553 52.6083 349.206 71.8062 349.206 91.7639V111.745Z" fill="#F5EBDD"/>
<path d="M18.3917 435.934C28.5491 435.934 36.7834 427.7 36.7834 417.543C36.7834 407.385 28.5491 399.151 18.3917 399.151C8.23424 399.151 0 407.385 0 417.543C0 427.7 8.23424 435.934 18.3917 435.934Z" fill="#FFB7D5"/>
<path d="M428.565 267.619C428.568 268.127 428.464 268.629 428.261 269.095C426.838 272.336 420.754 272.815 414.705 270.162C409.637 267.946 406.192 264.236 406.045 261.185V301.65H428.579V267.619H428.565Z" fill="#FFBE21"/>
<path d="M419.901 258.437C413.851 255.785 407.777 256.264 406.344 259.505C406.114 260.037 406.011 260.615 406.045 261.194C406.193 264.245 409.637 267.956 414.705 270.172C420.755 272.824 426.829 272.345 428.262 269.104C428.465 268.639 428.568 268.136 428.565 267.628C428.58 264.539 425.092 260.705 419.901 258.437Z" fill="#A15842"/>
<path d="M445.841 280.967C445.694 284.018 442.249 287.728 437.181 289.949C431.127 292.597 425.058 292.122 423.62 288.876C423.419 288.412 423.316 287.911 423.316 287.406V301.641H445.846V280.967H445.841Z" fill="#FFBE21"/>
<path d="M445.542 279.277C444.119 276.036 438.035 275.557 431.981 278.21C426.795 280.482 423.307 284.312 423.316 287.405C423.316 287.911 423.419 288.412 423.62 288.876C425.044 292.122 431.127 292.596 437.181 289.949C442.249 287.728 445.694 284.017 445.841 280.966C445.875 280.388 445.773 279.809 445.542 279.277Z" fill="#A15842"/>
<path d="M423.977 301.66V287.866" stroke="#A15842" stroke-width="4" stroke-miterlimit="10" stroke-linecap="round"/>
<path d="M417.311 255.443V263.263" stroke="#30242A" stroke-width="4" stroke-linecap="round" stroke-linejoin="round"/>
<path d="M434.582 275.22V283.495" stroke="#30242A" stroke-width="4" stroke-linecap="round" stroke-linejoin="round"/>
<path d="M320.829 436.067C320.254 436.067 319.686 435.931 319.174 435.67C318.662 435.409 318.219 435.029 317.882 434.563C317.544 434.097 317.323 433.558 317.234 432.989C317.146 432.421 317.194 431.84 317.374 431.294L328.762 396.589C329.003 395.861 329.467 395.228 330.088 394.779C330.709 394.33 331.455 394.088 332.222 394.088H340.203C340.837 394.088 341.46 394.253 342.01 394.568C342.561 394.883 343.019 395.336 343.34 395.883C343.661 396.43 343.833 397.051 343.84 397.685C343.846 398.319 343.687 398.944 343.377 399.497L323.989 434.202C323.675 434.766 323.217 435.236 322.662 435.563C322.106 435.891 321.474 436.065 320.829 436.067Z" fill="#30242A"/>
<path d="M473.39 436.067C473.966 436.067 474.533 435.931 475.045 435.67C475.558 435.409 476 435.029 476.338 434.563C476.675 434.097 476.897 433.558 476.985 432.989C477.073 432.421 477.025 431.84 476.845 431.294L465.457 396.589C465.217 395.862 464.754 395.229 464.134 394.78C463.514 394.331 462.768 394.089 462.002 394.088H454.017C453.383 394.089 452.761 394.255 452.211 394.57C451.662 394.886 451.204 395.339 450.883 395.885C450.563 396.432 450.39 397.052 450.383 397.686C450.376 398.319 450.534 398.944 450.842 399.497L470.23 434.202C470.545 434.765 471.003 435.234 471.558 435.562C472.113 435.89 472.746 436.064 473.39 436.067Z" fill="#30242A"/>
<path d="M490.999 301.66H303.842V408.802H490.999V301.66Z" fill="#A15842"/>
<path d="M477.202 315.453H317.637V395.008H477.202V315.453Z" fill="#FFB7D5"/>
<path d="M397.248 314.077V396.389" stroke="#A15842" stroke-width="4" stroke-miterlimit="10"/>
<path d="M416.053 360.052C418.716 360.052 420.874 357.894 420.874 355.231C420.874 352.569 418.716 350.41 416.053 350.41C413.391 350.41 411.232 352.569 411.232 355.231C411.232 357.894 413.391 360.052 416.053 360.052Z" fill="#30242A"/>
<path d="M378.786 360.052C381.448 360.052 383.607 357.894 383.607 355.231C383.607 352.569 381.448 350.41 378.786 350.41C376.123 350.41 373.965 352.569 373.965 355.231C373.965 357.894 376.123 360.052 378.786 360.052Z" fill="#30242A"/>
<path d="M73.9844 391.464V399.279H141.582V391.464H73.9844Z" fill="#A15842"/>
<path d="M152.718 432.024L135.973 331.549H146.213C147.31 331.549 148.363 331.113 149.139 330.337C149.915 329.561 150.351 328.508 150.351 327.411C150.351 326.313 149.915 325.261 149.139 324.485C148.363 323.709 147.31 323.273 146.213 323.273H69.4339C68.3365 323.273 67.284 323.709 66.5081 324.485C65.7321 325.261 65.2962 326.313 65.2962 327.411C65.2962 328.508 65.7321 329.561 66.5081 330.337C67.284 331.113 68.3365 331.549 69.4339 331.549H79.5929L62.8478 432.024C62.7651 432.522 62.7917 433.031 62.9258 433.517C63.0599 434.003 63.2983 434.454 63.6243 434.839C63.9503 435.224 64.3562 435.533 64.8137 435.745C65.2712 435.957 65.7694 436.067 66.2737 436.067C67.0664 436.068 67.8354 435.797 68.4526 435.299C69.0699 434.802 69.4983 434.108 69.6664 433.334L91.8541 331.549H123.712L145.895 433.334C146.065 434.108 146.494 434.802 147.112 435.299C147.73 435.796 148.499 436.067 149.292 436.067C149.797 436.067 150.295 435.957 150.752 435.745C151.21 435.533 151.616 435.224 151.942 434.839C152.268 434.454 152.506 434.003 152.64 433.517C152.774 433.031 152.801 432.522 152.718 432.024Z" fill="#FFBE21"/>
<path d="M146.214 331.549C147.311 331.549 148.363 331.113 149.139 330.337C149.915 329.561 150.351 328.508 150.351 327.411C150.351 326.313 149.915 325.261 149.139 324.485C148.363 323.709 147.311 323.273 146.214 323.273H69.4345C68.3372 323.273 67.2847 323.709 66.5088 324.485C65.7328 325.261 65.2969 326.313 65.2969 327.411C65.2969 328.508 65.7328 329.561 66.5088 330.337C67.2847 331.113 68.3372 331.549 69.4345 331.549H79.5936V331.677H91.8452L91.8737 331.549H123.732L123.76 331.677H136.012V331.549H146.214Z" fill="#A15842"/>
<path d="M150.764 391.331H199.637C200.245 380.953 202.413 367.188 204.211 348.593C205.811 332.104 207.187 318.262 207.096 306.836C206.945 287.79 158.223 310.841 158.223 310.841C158.223 315.003 159.063 318.998 159.086 322.87C159.143 332.929 154.047 341.489 150.408 353.622C144.889 372.019 149.487 391.331 149.487 391.331H150.764Z" fill="#4856DF"/>
<path d="M202.241 430.876H159.456C158.862 431.065 158.355 431.46 158.027 431.99C157.698 432.52 157.57 433.15 157.665 433.766C157.76 434.382 158.072 434.943 158.545 435.35C159.018 435.756 159.62 435.98 160.243 435.981L223.205 436.067C223.76 429.946 220.282 425.338 210.469 418.51C204.87 423.365 202.241 430.876 202.241 430.876Z" fill="#3EC1F3"/>
<path d="M208.263 417.025C206.231 415.711 204.475 414.012 203.096 412.024C199.774 407.151 199.072 400.588 199.618 391.331H157.264C157.346 398.252 157.845 405.162 158.758 412.024C159.84 419.791 161.302 425.134 162.474 430.752H160.248C159.979 430.752 159.712 430.794 159.456 430.876H202.242C202.242 430.876 204.87 423.364 210.47 418.539C209.767 418.042 209.032 417.538 208.263 417.025Z" fill="#A15842"/>
<path d="M200.131 383.017C197.512 377.803 195.726 372.211 194.84 366.443C191.742 344.915 193.578 333.878 184.843 324.212H159.281" stroke="#30242A" stroke-width="4" stroke-linecap="round" stroke-linejoin="round"/>
<path d="M216.069 393.167L216.117 393.281L253.849 375.611C250.912 366.823 247.842 355.131 242.798 339.828C238.072 325.508 234.945 314.808 231.984 306.528C227.843 309.511 222.737 310.838 217.668 310.249C212.599 309.66 207.933 307.197 204.586 303.345C201.239 299.492 199.453 294.528 199.579 289.426C199.704 284.324 201.732 279.454 205.265 275.771C185.122 266.67 113.582 260.734 113.582 260.734L73.1114 254.755C70.9762 258.285 69.1588 263.88 68.1719 270.414H82.312V285.536C82.3045 288.594 81.0852 291.524 78.9212 293.684C76.7573 295.845 73.8252 297.059 70.7674 297.062H69.9607C69.7709 297.062 69.5811 297.062 69.3961 297.062C73.2585 311.297 83.1946 323.287 103.475 323.287H185.326C194.062 332.943 192.226 343.98 195.324 365.518C197.858 383.136 209.868 396.123 209.868 396.123L216.069 393.167Z" fill="#4856DF"/>
<path d="M273.551 413.405L235.97 430.449C235.334 430.894 234.888 431.561 234.721 432.319C234.554 433.078 234.678 433.871 235.069 434.542C235.459 435.213 236.088 435.712 236.83 435.941C237.572 436.17 238.372 436.112 239.073 435.778L296.099 409.205C293.864 403.037 288.118 400.664 274.504 398.292L273.921 398.183C272.793 403.182 272.667 408.356 273.551 413.405Z" fill="#3EC1F3"/>
<path d="M273.921 398.164C270.002 397.414 266.927 396.109 264.388 394.135C259.71 390.491 256.844 384.56 253.85 375.63L216.117 393.3C219.315 400.65 223.804 408.38 228.079 415.127C231.814 421.001 235.377 426.121 237.773 429.552L236.412 430.212C236.257 430.287 236.109 430.376 235.97 430.477L273.551 413.433C272.661 408.369 272.787 403.179 273.921 398.164Z" fill="#A15842"/>
<path d="M220.036 310.395C224.327 310.398 228.508 309.044 231.984 306.528C226.095 289.977 220.99 283.083 205.549 275.899L205.265 275.771C202.489 278.665 200.625 282.311 199.905 286.256C199.185 290.201 199.64 294.27 201.214 297.958C202.788 301.647 205.411 304.791 208.757 307.001C212.104 309.21 216.026 310.387 220.036 310.386V310.395Z" fill="#3EC1F3"/>
<path d="M70.7676 297.062C73.8312 297.062 76.7693 295.845 78.9359 293.679C81.1026 291.513 82.3205 288.576 82.3217 285.512V270.39H68.1816C66.9337 278.594 67.0048 288.245 69.3963 297.047C69.5814 297.047 69.7712 297.047 69.961 297.047L70.7676 297.062Z" fill="#3EC1F3"/>
<path d="M184.629 324.421H198.423" stroke="#30242A" stroke-width="4" stroke-linecap="round" stroke-linejoin="round"/>
<path d="M243.96 178.19C243.96 178.19 219.129 149.682 189.791 139.342" stroke="#30242A" stroke-width="4" stroke-linecap="round" stroke-linejoin="round"/>
<path d="M166.075 150.479C165.174 148.301 168.182 144.884 173.193 141.999C166.407 140.31 161.587 137.164 162.071 134.521C162.555 131.878 168.173 130.635 175.119 131.451C171.466 126.991 169.857 122.73 171.47 121.012C173.525 118.815 180.045 121.586 186.028 127.181C191.248 132.068 194.332 137.506 193.677 140.272C193.312 143.091 188.505 147.086 181.9 149.819C174.303 152.97 167.228 153.264 166.075 150.479Z" fill="#4756DF"/>
<path d="M193.924 149.126C198.709 149.126 202.589 145.247 202.589 140.462C202.589 135.677 198.709 131.797 193.924 131.797C189.139 131.797 185.26 135.677 185.26 140.462C185.26 145.247 189.139 149.126 193.924 149.126Z" fill="#30242A"/>
<path d="M212.179 151.621C214.559 150.737 213.477 141.909 209.762 131.902C206.047 121.896 201.105 114.501 198.724 115.385C196.344 116.269 197.426 125.097 201.141 135.103C204.857 145.11 209.798 152.505 212.179 151.621Z" fill="#30242A"/>
<path d="M211.756 153.359C211.756 153.359 215.438 163.475 213.597 174.052" stroke="#30242A" stroke-width="4" stroke-linecap="round" stroke-linejoin="round"/>
<path d="M144.609 113.064C136.761 121.895 128.419 123.845 128.419 123.845C123.024 117.961 113.235 117.961 111.741 126.298C110.113 135.537 121.539 138.08 121.539 138.08C121.539 138.08 124.419 150 120.002 155.888C116.101 161.108 111.09 161.966 100.822 163.115C114.203 185.725 127.869 183.941 132.419 183.941C143.333 183.941 146.408 171.276 147.266 164.747C144.781 163.881 142.246 163.166 139.674 162.607L138.203 153.781C138.203 153.781 145.07 156.23 150.958 152.799C156.847 149.368 158.318 142.986 156.353 133.178C155.191 127.366 155.233 120.177 154.237 113.752C150.351 114.412 144.609 113.064 144.609 113.064Z" fill="#A15842"/>
<path d="M226.242 162.327C224.159 153.99 207.851 149.468 207.851 149.468C207.851 149.468 208.828 130.754 204.629 130.156C201.412 129.681 198.19 137.515 195.433 152.69C192.349 169.648 194.052 200.97 194.052 200.97C194.052 200.97 190.641 197.872 185.801 193.559C185.317 194.536 184.575 195.363 183.655 195.948C182.735 196.534 181.672 196.856 180.581 196.88C181.269 197.752 181.7 198.799 181.826 199.903C181.951 201.007 181.766 202.124 181.291 203.129C180.817 204.133 180.071 204.985 179.138 205.589C178.205 206.193 177.122 206.524 176.012 206.546C176.7 207.418 177.131 208.465 177.256 209.569C177.382 210.673 177.197 211.79 176.722 212.794C176.247 213.799 175.501 214.651 174.569 215.255C173.636 215.858 172.553 216.19 171.442 216.211C172.164 217.127 172.603 218.234 172.702 219.396C172.802 220.558 172.56 221.724 172.005 222.749C171.449 223.775 170.606 224.616 169.578 225.167C168.551 225.719 167.384 225.957 166.223 225.853C176.296 232.411 189.99 240.06 199.115 240.06C246.935 240.041 227.623 167.845 226.242 162.327Z" fill="#A15842"/>
<path d="M172.135 222.441C172.609 221.437 172.794 220.32 172.669 219.216C172.544 218.113 172.114 217.065 171.428 216.192C172.538 216.171 173.621 215.839 174.554 215.236C175.487 214.632 176.233 213.78 176.707 212.775C177.182 211.771 177.367 210.654 177.242 209.55C177.116 208.446 176.685 207.399 175.997 206.527C177.108 206.505 178.191 206.174 179.123 205.57C180.056 204.966 180.802 204.114 181.277 203.11C181.752 202.105 181.937 200.988 181.811 199.884C181.686 198.78 181.255 197.733 180.567 196.861C181.657 196.837 182.72 196.515 183.64 195.929C184.56 195.344 185.303 194.517 185.786 193.54C177.444 186.109 164.865 175.091 158.17 170.142C154.929 167.746 150.801 165.971 147.257 164.747C146.421 171.295 143.366 183.94 132.452 183.94C127.921 183.94 114.236 185.725 100.855 163.115L96.556 163.589C81.7516 165.236 75.0136 173.202 71.0468 182.721C68.5936 188.61 66.6292 199.4 66.6292 199.4C65.1072 209.292 64.3237 219.284 64.2852 229.293L83.5357 247.111L135.218 248.387C139.356 242.285 146.948 231.016 149.453 226.693C152.671 221.175 153.131 216.577 153.131 216.577C153.131 216.577 158.654 220.895 166.222 225.825C167.435 225.931 168.652 225.664 169.708 225.059C170.765 224.455 171.612 223.541 172.135 222.441Z" fill="#FFBE21"/>
<path d="M150.008 102.269C144.124 94.9145 127.934 90.0081 115.18 99.3273C102.425 108.647 103.407 123.854 103.896 129.743C103.896 129.743 90.164 125.325 80.3513 135.627C77.5114 138.572 75.4432 142.173 74.3306 146.11C73.218 150.047 73.0955 154.198 73.974 158.194C73.974 158.194 55.905 157.686 52.3889 174.384C50.3912 183.874 54.1208 190.19 58.2585 194.1C60.6852 196.377 63.5202 198.175 66.6145 199.4C66.6145 199.4 68.5789 188.61 71.0321 182.721C74.9989 173.203 81.7368 165.236 96.5413 163.589L100.84 163.115C111.108 161.966 116.119 161.093 120.02 155.888C124.432 149.999 121.538 138.08 121.538 138.08C121.538 138.08 110.098 135.537 111.725 126.308C113.201 117.971 123.009 117.971 128.404 123.854C128.404 123.854 136.746 121.895 144.594 113.064C144.594 113.064 150.336 114.412 154.25 113.752C153.581 109.33 152.404 105.273 150.008 102.269Z" fill="#30242A"/>
<path d="M227.263 168.88C225.873 168.239 225.042 166.626 225.279 163.542C225.279 163.542 222.404 167.148 219.343 165.544C216.283 163.94 217.507 160.486 217.507 160.486C217.507 160.486 214.746 162.327 212.449 160.011C210.366 157.928 211.974 154.493 211.974 154.493C211.974 154.493 208.919 155.741 207.837 153.572C206.475 150.858 208.131 148.016 209.925 145.838" stroke="#30242A" stroke-width="8" stroke-linecap="round" stroke-linejoin="round"/>
<path d="M73.1016 158.593C73.6215 161.051 74.5587 163.402 75.8726 165.544" stroke="black" stroke-width="4" stroke-miterlimit="10" stroke-linecap="round"/>
<path d="M193.131 201.564L194.284 215.898" stroke="#30242A" stroke-width="4" stroke-linecap="round" stroke-linejoin="round"/>
<path d="M151.518 200.714C154.521 206.123 154.483 212.615 154.094 216.463" stroke="#30242A" stroke-width="4" stroke-linecap="round" stroke-linejoin="round"/>
<path d="M124.386 215.898L109.672 216.358" stroke="#30242A" stroke-width="4" stroke-linecap="round" stroke-linejoin="round"/>
<path d="M137.953 154.687C135.896 153.88 133.89 152.95 131.945 151.902" stroke="#30242A" stroke-width="4" stroke-linecap="round" stroke-linejoin="round"/>
<path d="M141.63 168.306L140.828 163.224" stroke="#30242A" stroke-width="4" stroke-linecap="round" stroke-linejoin="round"/>
<path d="M102.904 129.928L103.924 138.412" stroke="black" stroke-width="4" stroke-miterlimit="10" stroke-linecap="round"/>
<path d="M151.518 140.025C150.479 140.699 147.034 140.922 145.383 137.919" stroke="#30242A" stroke-width="4" stroke-linecap="round" stroke-linejoin="round"/>
<path d="M123.926 130.365L119.328 128.068" stroke="#30242A" stroke-width="4" stroke-linecap="round" stroke-linejoin="round"/>
<path d="M145.156 128.329C144.42 129.33 140.952 131.271 138.342 129.055" stroke="#30242A" stroke-width="4" stroke-linecap="round" stroke-linejoin="round"/>
<path d="M156.328 126.882C155.779 126.998 155.212 127.006 154.66 126.903C154.108 126.8 153.582 126.59 153.111 126.284" stroke="#30242A" stroke-width="4" stroke-linecap="round" stroke-linejoin="round"/>
<path d="M150.109 128.59C150.636 129.781 151.144 131.095 151.034 131.598C150.873 132.21 150.508 132.749 150 133.126" stroke="#30242A" stroke-width="4" stroke-linecap="round" stroke-linejoin="round"/>
<path d="M121.405 135.921L115.128 141.843C114.788 142.163 114.536 142.566 114.395 143.011C114.255 143.457 114.232 143.931 114.327 144.388C114.422 144.846 114.633 145.271 114.939 145.624C115.245 145.976 115.637 146.245 116.077 146.403L123.498 149.036C123.939 149.192 124.413 149.232 124.874 149.153C125.335 149.073 125.768 148.877 126.131 148.582C126.494 148.287 126.776 147.904 126.949 147.469C127.122 147.035 127.18 146.563 127.118 146.099L125.975 137.558C125.908 137.062 125.706 136.593 125.391 136.204C125.076 135.814 124.659 135.519 124.188 135.35C123.716 135.181 123.207 135.145 122.717 135.246C122.226 135.346 121.772 135.58 121.405 135.921Z" fill="#F4E6D8"/>
<path d="M211.528 137.496C211.528 137.496 214.745 135.655 217.506 136.576C221.777 137.999 221.151 141.976 221.151 141.976C221.151 141.976 227.139 139.817 228.301 146.147C228.301 146.147 233.701 147.357 232.486 152.756C232.486 152.756 236.857 152.989 235.988 158.716C235.12 164.443 231.3 169.203 229.004 169.203C226.631 169.203 224.956 167.746 225.279 163.509C225.279 163.509 222.403 167.115 219.343 165.511C216.282 163.907 217.506 160.453 217.506 160.453C217.506 160.453 214.745 162.294 212.448 159.978C210.365 157.895 211.974 154.46 211.974 154.46C211.974 154.46 208.918 155.708 207.836 153.539C205.535 148.941 211.865 143.997 212.894 142.507L211.528 137.496Z" fill="#A15842"/>
<path d="M210.162 156.135C213.322 153.235 218.703 147.764 221.256 142.023" stroke="#30242A" stroke-width="4" stroke-linecap="round" stroke-linejoin="round"/>
<path d="M215.965 162.754C221.216 158.288 225.503 152.799 228.563 146.621" stroke="#30242A" stroke-width="4" stroke-linecap="round" stroke-linejoin="round"/>
<path d="M224.092 166.161C225.515 164.424 230.493 158.185 232.96 153.245" stroke="#30242A" stroke-width="4" stroke-linecap="round" stroke-linejoin="round"/>
<path d="M223.201 271.771H143.561L161.663 214.579C162.198 212.895 163.255 211.426 164.682 210.383C166.108 209.341 167.83 208.779 169.596 208.781H236.895C238.203 208.78 239.492 209.088 240.658 209.679C241.825 210.27 242.835 211.128 243.608 212.183C244.381 213.237 244.894 214.459 245.106 215.75C245.318 217.04 245.223 218.362 244.829 219.609L229.858 266.902C229.408 268.315 228.521 269.548 227.324 270.423C226.127 271.298 224.683 271.77 223.201 271.771Z" fill="#30242A"/>
<path d="M97.3388 265.332C97.1038 266.072 97.0468 266.858 97.1724 267.625C97.298 268.392 97.6027 269.119 98.0616 269.746C98.5206 270.373 99.121 270.884 99.8141 271.235C100.507 271.587 101.273 271.77 102.051 271.771H223.2C224.682 271.767 226.124 271.293 227.318 270.416C228.512 269.539 229.396 268.305 229.843 266.893L230.318 265.332H97.3388Z" fill="#30242A"/>
<path d="M211.002 235.353C209.151 232.819 200.739 239.509 200.122 240.064C199.799 239.509 195.424 232.819 192.212 235.353C189.426 237.55 195.533 247.358 197.18 249.858C197.248 249.934 197.331 249.995 197.425 250.037C197.518 250.078 197.619 250.1 197.721 250.1C197.823 250.1 197.924 250.078 198.017 250.037C198.11 249.995 198.194 249.934 198.262 249.858C201.256 247.334 212.611 237.526 211.002 235.353Z" fill="#FFBE21"/>
<path d="M203.313 233.562C203.982 231.415 203.954 229.497 203.251 229.278C202.548 229.059 201.436 230.622 200.767 232.769C200.099 234.916 200.127 236.833 200.83 237.052C201.533 237.271 202.645 235.709 203.313 233.562Z" fill="#FFBE21"/>
<path d="M51.707 219.917C52.7408 220.316 53.8648 220.419 54.9539 220.217C56.043 220.014 57.0545 219.513 57.8756 218.769C57.9729 219.877 58.3782 220.936 59.0456 221.826C59.7129 222.715 60.6158 223.401 61.6523 223.805C62.6887 224.208 63.8174 224.314 64.9109 224.11C66.0043 223.906 67.0189 223.401 67.8401 222.65C67.94 223.757 68.3468 224.814 69.0147 225.702C69.6827 226.59 70.5853 227.274 71.6209 227.677C72.6565 228.08 73.784 228.186 74.8765 227.983C75.969 227.779 76.9831 227.275 77.8046 226.527C77.8807 227.401 78.1486 228.247 78.5893 229.005C79.03 229.763 79.6326 230.415 80.3541 230.913C81.0756 231.412 81.8982 231.745 82.7633 231.889C83.6284 232.033 84.5146 231.985 85.3587 231.747L92.5332 212.477C95.2964 205.08 96.6063 197.219 96.3909 189.326L95.6649 163.703C95.6649 163.703 79.1095 165.079 69.4534 177.037C64.4996 183.172 54.7771 199.381 48.5469 217.004C49.2016 218.334 50.3282 219.373 51.707 219.917Z" fill="#FFBE21"/>
<path d="M81.5947 231.557C80.5555 231.156 79.6492 230.473 78.9783 229.584C78.3074 228.695 77.8988 227.636 77.7987 226.527C76.9772 227.275 75.9631 227.779 74.8706 227.982C73.7781 228.186 72.6506 228.08 71.615 227.677C70.5793 227.274 69.6768 226.59 69.0088 225.702C68.3408 224.814 67.934 223.757 67.8342 222.65C67.013 223.4 65.9983 223.906 64.9049 224.11C63.8115 224.314 62.6828 224.208 61.6463 223.804C60.6099 223.401 59.707 222.715 59.0396 221.825C58.3723 220.936 57.967 219.877 57.8696 218.769C57.1866 219.391 56.3685 219.846 55.4797 220.098C54.5909 220.35 53.6557 220.393 52.7478 220.222C51.8398 220.051 50.9838 219.672 50.2472 219.115C49.5107 218.557 48.9136 217.836 48.503 217.008C43.1031 232.283 40.3226 248.624 45.5516 260.387C56.8067 285.721 90.5865 276.805 98.5582 274.461C106.53 272.117 122.018 264.141 132.338 265.55C142.658 266.959 154.383 272.117 156.262 265.55C156.262 265.55 162.578 265.389 160.59 259.381C160.59 259.381 163.764 258.988 164.234 256.644C165.183 251.951 153.913 247.732 153.913 247.732C153.913 247.732 162.829 249.156 164.704 247.258C167.076 244.885 164.77 241.056 150.208 237.526C134.212 233.654 113.102 235.998 81.6706 241.626L85.348 231.742C84.1101 232.09 82.7925 232.025 81.5947 231.557Z" fill="#A15842"/>
<path d="M92.655 209.92L82.1543 240.572" stroke="#30242A" stroke-width="4" stroke-linecap="round" stroke-linejoin="round"/>
<path d="M156.746 248.069C151.65 246.134 143.166 243.163 136.58 242.091" stroke="#30242A" stroke-width="4" stroke-linecap="round" stroke-linejoin="round"/>
<path d="M160.724 259.135C154.176 256.188 141.668 250.84 134.939 249.834" stroke="#30242A" stroke-width="4" stroke-linecap="round" stroke-linejoin="round"/>
<path d="M81.7466 240.639C78.2163 241.208 72.6742 242.152 67.1367 243.258" stroke="#30242A" stroke-width="4" stroke-linecap="round" stroke-linejoin="round"/>
<path d="M156.069 266.195C151.158 263.695 140.809 258.722 133.535 257.336" stroke="#30242A" stroke-width="4" stroke-linecap="round" stroke-linejoin="round"/>
<path d="M375.871 205.649C375.871 205.649 372.142 214.038 362.357 214.038C352.573 214.038 348.825 205.649 348.825 205.649C348.825 205.649 321.303 268.568 348.35 301.66H376.312C403.345 268.568 375.871 205.649 375.871 205.649Z" fill="#3EC1F3"/>
<path d="M362.334 214.038C372.118 214.038 375.847 205.649 375.847 205.649H348.801C348.801 205.649 352.545 214.038 362.334 214.038Z" fill="#30242A"/>
<path d="M387.612 261.664C372.399 261.934 354.396 267.429 340.541 286.813" stroke="#F5EBDD" stroke-width="4" stroke-linecap="round" stroke-linejoin="round"/>
<path d="M338.105 246.266C348.317 243.775 367.653 241.403 386.396 245.863" stroke="#F5EBDD" stroke-width="4" stroke-linecap="round" stroke-linejoin="round"/>
<path d="M386.311 277.816C379.506 277.897 366.927 285.607 368.313 301.147" stroke="#F5EBDD" stroke-width="4" stroke-linecap="round" stroke-linejoin="round"/>
<path d="M360.621 211.248C360.336 204.486 358.538 177.615 347.861 161.852" stroke="#30242A" stroke-width="4" stroke-miterlimit="10" stroke-linecap="round"/>
<path d="M358.397 190.586C359.762 188.272 352.526 181.475 342.236 175.404C331.947 169.333 322.498 166.288 321.134 168.601C319.769 170.914 327.004 177.711 337.294 183.782C347.584 189.853 357.032 192.899 358.397 190.586Z" fill="#30242A"/>
<path d="M354.4 123.528C356.403 122.385 355.374 116.805 352.1 111.064C348.827 105.322 344.549 101.594 342.545 102.736C340.542 103.878 341.572 109.459 344.845 115.2C348.119 120.942 352.397 124.67 354.4 123.528Z" fill="#30242A"/>
<path d="M319.158 147.869C320.235 145.473 325.303 145.297 331.462 147.133C327.666 140.343 326.504 134.028 329.014 132.4C331.524 130.773 336.829 134.374 341.484 140.623C342.305 134.251 344.525 129.71 347.178 129.681C350.528 129.681 353.27 137.069 353.303 146.208C353.324 148.821 353.092 151.431 352.611 153.999C351.15 153.33 349.545 153.037 347.942 153.146C346.339 153.255 344.789 153.762 343.432 154.623C342.075 155.483 340.955 156.669 340.173 158.072C339.391 159.476 338.972 161.053 338.955 162.659C336.498 162.057 334.102 161.227 331.799 160.182C323.434 156.438 317.787 150.929 319.158 147.869Z" fill="#4756DF"/>
<path d="M343.326 154.688C344.687 153.803 346.25 153.276 347.869 153.158C349.489 153.039 351.112 153.332 352.588 154.009C351.772 158.256 350.296 161.407 348.521 162.431C346.832 163.66 343.254 163.708 338.932 162.669C338.949 161.079 339.36 159.519 340.126 158.126C340.893 156.734 341.992 155.553 343.326 154.688Z" fill="#30242A"/>
<path d="M364.18 210.84C365.489 203.371 372.308 166.754 383.221 146.037" stroke="#30242A" stroke-width="4" stroke-miterlimit="10" stroke-linecap="round"/>
<path d="M420.059 196.784C420.844 194.36 410.361 188.794 396.644 184.35C382.927 179.907 371.171 178.269 370.386 180.692C369.601 183.115 380.084 188.682 393.801 193.126C407.518 197.569 419.274 199.207 420.059 196.784Z" fill="#30242A"/>
<path d="M381.167 113.937C383.786 113.7 386.424 118.032 387.843 124.3C391.886 117.657 396.83 113.548 399.482 114.939C402.135 116.329 401.594 122.716 398.429 129.838C404.389 127.432 409.452 127.129 410.766 129.416C412.417 132.329 407.316 138.35 399.378 142.858C397.114 144.156 394.73 145.233 392.26 146.075C392.125 144.476 391.593 142.936 390.712 141.594C389.831 140.253 388.63 139.152 387.216 138.392C385.803 137.632 384.222 137.237 382.617 137.242C381.012 137.247 379.434 137.653 378.025 138.422C377.348 135.983 376.895 133.488 376.673 130.967C375.795 121.866 377.831 114.241 381.167 113.937Z" fill="#4756DF"/>
<path d="M387.085 138.336C388.524 139.089 389.75 140.193 390.648 141.546C391.546 142.899 392.088 144.457 392.224 146.075C388.119 147.447 384.632 147.708 382.886 146.664C380.988 145.795 379.189 142.697 377.975 138.422C379.368 137.657 380.929 137.249 382.519 137.234C384.109 137.219 385.677 137.598 387.085 138.336Z" fill="#30242A"/>
<path d="M409.458 157.378V157.416C407.226 158.336 405.42 160.059 404.397 162.245C403.373 164.431 403.205 166.922 403.927 169.225C404.649 171.528 406.208 173.478 408.297 174.688C410.385 175.899 412.851 176.283 415.209 175.765V175.803C402.706 179.717 391.28 178.768 389.685 173.677C388.091 168.586 396.955 161.293 409.458 157.378Z" fill="#4756DF"/>
<path d="M406.482 173.335C407.578 172.896 408.468 172.059 408.974 170.991C409.479 169.923 409.562 168.704 409.206 167.577C408.85 166.451 408.082 165.5 407.055 164.917C406.028 164.333 404.818 164.159 403.668 164.429C403.983 162.873 404.677 161.42 405.689 160.196C406.7 158.973 407.998 158.018 409.466 157.416L415.217 175.765C413.674 176.106 412.07 176.063 410.547 175.639C409.024 175.216 407.628 174.425 406.482 173.335Z" fill="#FFB7D5"/>
<path d="M409.186 167.594C409.538 168.716 409.455 169.929 408.954 170.993C408.453 172.057 407.57 172.893 406.481 173.336C405.297 172.21 404.417 170.803 403.925 169.245C403.433 167.688 403.344 166.031 403.667 164.429C404.816 164.166 406.023 164.346 407.045 164.932C408.068 165.519 408.832 166.469 409.186 167.594Z" fill="#30242A"/>
</svg>
