<svg width="535" height="428" viewBox="0 0 535 428" fill="none" xmlns="http://www.w3.org/2000/svg">
<path d="M96.2149 229.313H84.5684V427.262H96.2149V229.313Z" fill="#FFBE21"/>
<path d="M96.2197 232.035H84.5684" stroke="#A15842" stroke-width="4" stroke-miterlimit="10"/>
<path d="M31.7163 387.542C32.896 384.159 35.0993 381.226 38.0205 379.151C40.9418 377.076 44.4363 375.961 48.0196 375.961C51.6029 375.961 55.0974 377.076 58.0186 379.151C60.9399 381.226 63.1431 384.159 64.3229 387.542C65.4489 384.312 67.509 381.489 70.2419 379.432C72.9749 377.374 76.2574 376.175 79.673 375.986C78.1481 373.268 76.3322 370.724 74.2575 368.398L67.9885 361.347C66.0396 359.156 64.8121 356.419 64.4727 353.506C64.1334 350.594 64.6986 347.648 66.0917 345.067L71.4123 335.18C69.9185 336.683 61.2832 344.769 48.1761 344.769C35.0689 344.769 26.4336 336.683 24.9398 335.18H24.9161L30.2415 345.067C31.6284 347.653 32.1849 350.603 31.8353 353.516C31.4858 356.429 30.247 359.163 28.2877 361.347L22.0234 368.37C19.9449 370.696 18.1244 373.24 16.5938 375.957C19.9727 376.193 23.2079 377.416 25.8967 379.476C28.5856 381.536 30.6094 384.341 31.7163 387.542Z" fill="#4756DF"/>
<path d="M80.6262 397.534C77.0418 397.535 73.5466 398.651 70.6252 400.728C67.7038 402.804 65.5012 405.739 64.3229 409.124C63.1453 405.738 60.9429 402.803 58.0214 400.726C55.0999 398.649 51.6042 397.533 48.0196 397.533C44.4349 397.533 40.9392 398.649 38.0177 400.726C35.0962 402.803 32.8938 405.738 31.7163 409.124C30.2903 405.033 27.3794 401.627 23.5604 399.581C19.7414 397.536 15.2933 397 11.0977 398.08C11.3386 409.023 15.7487 419.461 23.4271 427.262H72.8349C80.4978 419.478 84.9066 409.066 85.1643 398.146C83.6857 397.74 82.1594 397.535 80.6262 397.534Z" fill="#4756DF"/>
<path d="M48.1386 344.788C61.2457 344.788 69.8811 336.702 71.3748 335.199H24.9023C26.3961 336.688 35.0314 344.788 48.1386 344.788Z" fill="#30242A"/>
<path d="M31.717 409.124C32.8945 405.738 35.0969 402.803 38.0184 400.726C40.9399 398.649 44.4357 397.533 48.0203 397.533C51.6049 397.533 55.1006 398.649 58.0221 400.726C60.9436 402.803 63.146 405.738 64.3236 409.124C65.7613 404.989 68.7161 401.555 72.5899 399.517C76.4637 397.479 80.9671 396.989 85.1888 398.146C85.3836 390.398 83.4814 382.741 79.6832 375.986C76.2676 376.175 72.985 377.374 70.2521 379.432C67.5192 381.489 65.459 384.312 64.3331 387.542C63.1533 384.159 60.9501 381.226 58.0288 379.151C55.1076 377.076 51.613 375.961 48.0298 375.961C44.4465 375.961 40.952 377.076 38.0307 379.151C35.1095 381.226 32.9062 384.159 31.7265 387.542C30.6127 384.349 28.586 381.553 25.8977 379.501C23.2094 377.449 19.9778 376.232 16.6039 376C12.8227 382.733 10.9242 390.36 11.1079 398.079C15.3035 396.999 19.7516 397.535 23.5706 399.581C27.3896 401.627 30.3005 405.033 31.7265 409.124H31.717Z" fill="#3EC1F3"/>
<path d="M51.582 343.431C52.5304 337.627 56.841 314.619 67.6814 302.114" stroke="#30242A" stroke-width="4" stroke-miterlimit="10" stroke-linecap="round"/>
<path d="M46.5788 343.598C46.5077 337.006 45.8295 304.641 39.3945 285.332" stroke="#30242A" stroke-width="4" stroke-miterlimit="10" stroke-linecap="round"/>
<path d="M75.0997 320.951C84.6045 316.769 91.547 311.645 90.6061 309.507C89.6652 307.369 81.1973 309.026 71.6925 313.208C62.1876 317.39 55.2452 322.514 56.186 324.652C57.1269 326.791 65.5948 325.134 75.0997 320.951Z" fill="#30242A"/>
<path d="M75.0944 262.118C78.5115 257.499 79.9758 252.788 78.3651 251.596C76.7543 250.405 72.6785 253.184 69.2614 257.804C65.8443 262.423 64.38 267.134 65.9907 268.326C67.6015 269.517 71.6774 266.738 75.0944 262.118Z" fill="#30242A"/>
<path d="M23.6342 324.235C36.0251 322.361 45.8016 319.068 45.4707 316.88C45.1398 314.692 34.8267 314.437 22.4358 316.311C10.0448 318.185 0.268271 321.478 0.599199 323.667C0.930126 325.855 11.2432 326.109 23.6342 324.235Z" fill="#30242A"/>
<path d="M14.9784 291.913V291.947C16.8092 292.97 18.1901 294.643 18.8487 296.634C19.5073 298.626 19.396 300.792 18.5365 302.705C17.6771 304.619 16.132 306.141 14.2058 306.972C12.2797 307.802 10.1123 307.881 8.13086 307.192V307.221C18.516 311.887 28.4791 312.243 30.376 308.018C32.2728 303.792 25.3683 296.58 14.9784 291.913Z" fill="#FF7235"/>
<path d="M45.6833 258.093C43.4735 257.519 40.5998 260.862 38.4991 266.036C35.9715 259.753 32.3059 255.546 29.8353 256.362C27.3647 257.178 26.9236 262.735 28.6355 269.289C23.865 266.387 19.5687 265.41 18.1318 267.188C16.3014 269.455 19.8295 275.335 26.0132 280.329C27.7724 281.762 29.6653 283.023 31.6657 284.094C32.0067 282.739 32.6807 281.491 33.6264 280.464C34.5722 279.436 35.7598 278.661 37.0812 278.208C38.4027 277.756 39.8163 277.641 41.1935 277.874C42.5707 278.107 43.8679 278.68 44.9673 279.541C45.8941 277.547 46.6339 275.47 47.1771 273.339C49.1735 265.652 48.5049 258.823 45.6833 258.093Z" fill="#FF7235"/>
<path d="M93.8898 292.999C93.2069 290.818 88.8489 290.154 83.3481 291.103C87.341 285.635 88.9722 280.3 86.9758 278.636C84.9794 276.971 80.0239 279.537 75.3672 284.454C75.3103 278.868 73.8639 274.704 71.5972 274.425C68.7093 274.069 65.5795 280.177 64.6121 288.058C64.3255 290.311 64.2556 292.587 64.4035 294.854C65.7339 294.425 67.1504 294.336 68.5241 294.594C69.8978 294.852 71.1852 295.45 72.2691 296.332C73.3529 297.215 74.1989 298.355 74.7301 299.648C75.2612 300.941 75.4607 302.346 75.3103 303.736C77.4943 303.459 79.6483 302.983 81.7453 302.313C89.3184 299.956 94.7576 295.778 93.8898 292.999Z" fill="#FF7235"/>
<path d="M72.3331 296.38C71.2486 295.476 69.953 294.86 68.5668 294.591C67.1805 294.321 65.7486 294.407 64.4043 294.839C64.6746 298.59 65.623 301.478 67.0504 302.526C68.3829 303.759 71.4653 304.172 75.3016 303.721C75.4511 302.348 75.2583 300.958 74.7403 299.678C74.2224 298.397 73.3953 297.264 72.3331 296.38Z" fill="#30242A"/>
<path d="M37.1649 278.18C35.824 278.623 34.6167 279.397 33.655 280.431C32.6933 281.464 32.0085 282.725 31.6641 284.094C34.9835 285.848 37.9331 286.56 39.5928 285.915C41.3427 285.441 43.3201 283.036 44.9656 279.541C43.8787 278.688 42.5975 278.118 41.2364 277.88C39.8752 277.643 38.4765 277.746 37.1649 278.18Z" fill="#30242A"/>
<path d="M15.9017 305.993C15.01 305.495 14.3375 304.681 14.0175 303.712C13.6975 302.742 13.7532 301.688 14.1737 300.757C14.5942 299.827 15.3487 299.089 16.2879 298.688C17.2271 298.288 18.2824 298.254 19.2449 298.595C19.1336 297.223 18.6859 295.9 17.9416 294.742C17.1972 293.584 16.179 292.627 14.977 291.956L8.11523 307.192C9.41214 307.645 10.8004 307.773 12.1581 307.564C13.5158 307.354 14.8013 306.815 15.9017 305.993Z" fill="#F5EBDD"/>
<path d="M14.1579 300.762C13.7443 301.692 13.6941 302.744 14.0171 303.709C14.3401 304.675 15.0129 305.484 15.903 305.978C17.0428 305.131 17.9478 304.007 18.5328 302.713C19.1177 301.418 19.3632 299.996 19.2462 298.581C18.2792 298.236 17.2179 298.27 16.2745 298.674C15.3311 299.079 14.5752 299.824 14.1579 300.762Z" fill="#4856DF"/>
<path d="M327.543 308.416H206.938L208.977 300.326H261.917L282.109 221.361C284.86 210.605 291.113 201.07 299.882 194.261C308.651 187.452 319.438 183.756 330.54 183.756C357.707 183.756 377.586 209.363 370.848 235.682L358.371 284.473C356.62 291.32 352.64 297.39 347.058 301.725C341.476 306.06 334.611 308.414 327.543 308.416Z" fill="#FFB7D5"/>
<path d="M207.871 383.147V391.711H284.736V383.147H207.871Z" fill="#A15842"/>
<path d="M297.398 422.662L277.405 303.66H215.199L195.206 422.662C195.112 423.228 195.142 423.808 195.294 424.361C195.447 424.915 195.718 425.428 196.089 425.866C196.46 426.304 196.922 426.655 197.443 426.896C197.963 427.138 198.53 427.262 199.104 427.262C200.006 427.261 200.88 426.952 201.582 426.387C202.284 425.821 202.772 425.032 202.964 424.151L229.15 303.66H263.473L289.65 424.151C289.841 425.033 290.329 425.822 291.031 426.388C291.733 426.954 292.608 427.262 293.51 427.262C294.083 427.261 294.649 427.135 295.168 426.894C295.688 426.652 296.148 426.3 296.518 425.862C296.888 425.425 297.159 424.912 297.311 424.359C297.463 423.807 297.492 423.228 297.398 422.662Z" fill="#A15842"/>
<path d="M271.549 383.147V391.711H348.413V383.147H271.549Z" fill="#FFBE21"/>
<path d="M361.075 422.662L341.063 303.66H278.88L258.888 422.662C258.793 423.228 258.823 423.808 258.976 424.361C259.128 424.915 259.4 425.428 259.771 425.866C260.142 426.304 260.603 426.655 261.124 426.896C261.645 427.138 262.212 427.262 262.786 427.262C263.687 427.262 264.561 426.953 265.263 426.387C265.964 425.821 266.45 425.032 266.641 424.151L292.817 303.66H327.145L353.322 424.151C353.514 425.033 354.002 425.823 354.705 426.389C355.408 426.955 356.284 427.263 357.187 427.262C357.76 427.261 358.325 427.135 358.845 426.894C359.365 426.652 359.825 426.3 360.195 425.862C360.565 425.425 360.836 424.912 360.988 424.359C361.139 423.807 361.169 423.228 361.075 422.662Z" fill="#FFBE21"/>
<path d="M298.246 284.473L305.872 254.65H255.335C245.425 254.65 235.797 257.949 227.969 264.027C220.141 270.104 214.558 278.614 212.102 288.215L206.938 308.416H267.413C274.482 308.415 281.349 306.062 286.931 301.726C292.514 297.391 296.495 291.321 298.246 284.473Z" fill="#FFB7D5"/>
<path d="M210.223 299.534H274.383" stroke="#A15842" stroke-width="4" stroke-linecap="round" stroke-linejoin="round"/>
<path d="M262.145 299.235L273.388 255.276" stroke="#A15842" stroke-width="4" stroke-linecap="round" stroke-linejoin="round"/>
<path d="M365.248 253.631H334.898" stroke="#A15842" stroke-width="4" stroke-linecap="round" stroke-linejoin="round"/>
<path d="M370.938 232.291H332.053" stroke="#A15842" stroke-width="4" stroke-linecap="round" stroke-linejoin="round"/>
<path d="M229.297 222.655C229.297 222.655 191.251 233.017 175.09 241.102C148.445 254.423 148.535 263.214 132.288 312.433C117.289 357.919 115.639 379.965 94.949 380.837C79.1532 381.501 73.9748 386.67 71.4141 393.755L133.92 423.412C134.636 423.751 135.455 423.803 136.209 423.558C136.962 423.313 137.594 422.789 137.974 422.093C138.361 421.382 138.455 420.548 138.237 419.769C138.018 418.989 137.503 418.326 136.803 417.92L135.489 417.162C141.298 410.124 152.504 395.13 163.676 372.354L170.789 375.673C170.789 375.673 182.279 360.74 184.1 343.802C186.471 321.926 185.049 307.183 195.04 298.624L311.553 222.636L229.297 222.655Z" fill="#FF7235"/>
<path d="M88.8066 384.351C90.0443 381.776 96.9204 366.089 100.875 367.986C106.02 370.452 92.6667 386.2 92.6667 386.2L88.8066 384.351Z" fill="#30242A"/>
<path d="M71.4082 393.977L133.914 423.63C134.637 423.975 135.467 424.027 136.227 423.774C136.988 423.521 137.622 422.983 137.995 422.273C138.368 421.564 138.451 420.737 138.228 419.967C138.005 419.197 137.492 418.543 136.797 418.143L135.483 417.384L135.616 417.223L92.6528 396.941C93.2965 395.158 93.748 393.31 93.9995 391.431C100.43 392.545 113.442 393.745 113.508 388.382C113.58 383.384 99.3676 385.39 94.175 386.803C94.063 384.882 93.6897 382.985 93.0653 381.164C78.7395 382.151 73.8646 387.177 71.4082 393.977Z" fill="#30242A"/>
<path d="M175.089 241.102C172.097 242.596 169.446 244.033 167.07 245.474L163.424 257.154L177.46 247.267L190.402 257.586L185.631 243.44L200.289 236.725L188.96 235.303C184.237 236.988 179.607 238.924 175.089 241.102Z" fill="#FFB7D5"/>
<path d="M216.445 235.023L215.496 241.202L221.68 238.826L216.445 235.023Z" fill="#FFB7D5"/>
<path d="M180.78 265.932L171.747 277.82L158.905 271.641L166.511 284.478L154.623 294.465L169.84 292.563L175.076 310.161L180.306 292.563L196.951 287.807L180.78 281.149V265.932Z" fill="#FFB7D5"/>
<path d="M129.992 356.705L131.102 353.537L146.277 352.731L133.947 344.337L139.439 331.187L127.019 339.467L124.648 336.906C122.751 343.152 121.072 348.714 119.432 353.603H119.508C119.688 353.067 119.868 352.527 120.048 351.977L129.992 356.705Z" fill="#FFB7D5"/>
<path d="M129.993 356.705L120.035 351.996C119.854 352.546 119.674 353.087 119.494 353.622C113.476 371.547 107.994 380.51 94.9584 381.06C94.3182 381.06 93.7017 381.122 93.0948 381.164C93.7191 382.985 94.0925 384.882 94.2044 386.803C99.4207 385.38 113.609 383.384 113.538 388.382C113.462 393.745 100.459 392.545 94.0289 391.431C93.7728 393.311 93.3166 395.158 92.668 396.941L135.631 417.223C141.474 410.11 152.584 395.192 163.671 372.605L129.993 356.705Z" fill="#EAA58B"/>
<path d="M167.938 320.622L166.515 333.464L153.199 332.989L164.613 341.554L160.346 356.771L171.769 346.779L182.036 353.627C182.32 352.72 182.581 351.801 182.818 350.872L178.882 341.07L184.981 334.388C185.08 333.146 185.175 331.922 185.265 330.732L174.614 332.511L167.938 320.622Z" fill="#FFB7D5"/>
<path d="M138.277 293.929C137.078 297.637 135.788 301.663 134.365 306.04L147.017 306.813L138.277 293.929Z" fill="#FFB7D5"/>
<path d="M182.951 409.778C183.15 406.933 183.772 389.814 188.144 390.122C193.834 390.52 187.219 410.077 187.219 410.077L182.951 409.778Z" fill="#30242A"/>
<path d="M288.27 223.352C288.27 223.352 240.711 232.173 214.554 243.108C188.145 254.152 188.401 273.765 193.153 327.043C197.421 374.739 205.046 397.899 189.359 405.031C174.972 411.575 169.974 419.779 170.656 427.281H241.48C241.879 427.281 242.274 427.203 242.643 427.05C243.012 426.897 243.347 426.673 243.629 426.391C243.911 426.109 244.135 425.773 244.288 425.405C244.441 425.036 244.519 424.641 244.519 424.241C244.519 423.435 244.199 422.662 243.629 422.092C243.059 421.522 242.286 421.202 241.48 421.202H240.285C242.518 413.894 245.757 399.63 246.203 376.024H254.985C254.985 376.024 259.499 355.159 254.511 336.551C249.295 317.056 244.524 313.727 241.674 300.411H284.291C316.836 300.411 341.196 270.309 334.116 238.546C331.906 228.621 328.701 223.371 328.701 223.371L288.27 223.352Z" fill="#FF7235"/>
<path d="M258.783 251.189L250.053 262.171L236.457 257.5L244.514 270.688L234.053 284.957L247.843 279.247L255.53 293.417L256.402 277.82L269.718 274.97L258.308 267.833L258.783 251.189Z" fill="#FFB7D5"/>
<path d="M239.786 335.967L247.848 349.155L237.387 363.424L251.177 357.734L256.289 367.156C257.038 359.834 257.408 349.003 255.018 338.604L253.387 340.657L239.786 335.967Z" fill="#FFB7D5"/>
<path d="M204.23 376.005L203.618 368.655L219.059 362.699L204.444 359.668L206.056 343.626L196.572 356.036L196.287 355.917C197.198 363.576 197.994 370.267 198.44 376.057V376.005H204.23Z" fill="#FFB7D5"/>
<path d="M241.479 421.183H240.284C242.518 413.875 245.756 399.611 246.202 376.005H198.426V376.048C198.464 376.522 198.497 376.996 198.53 377.47C198.53 377.513 198.53 377.56 198.53 377.603C199.521 392.422 197.904 401.091 189.34 404.984C174.952 411.528 169.954 419.732 170.637 427.234H241.479C242.285 427.234 243.058 426.913 243.628 426.343C244.198 425.773 244.519 425 244.519 424.194C244.519 423.388 244.198 422.615 243.628 422.045C243.058 421.475 242.285 421.154 241.479 421.154V421.183Z" fill="#EAA58B"/>
<path d="M304.889 224.58L283.043 226.515L285.319 235.298L271.344 242.752L288.752 245.081L294.642 258.126L300.697 244.616L318.404 241.818L303.026 233.899L304.889 224.58Z" fill="#FFB7D5"/>
<path d="M200.763 286.379L205.98 269.735L221.197 272.106L209.309 261.645L217.844 251.658L202.153 257.348L199.644 253.047C195.609 257.619 193.171 263.295 191.867 270.593L194.542 270.678L200.763 286.379Z" fill="#FFB7D5"/>
<path d="M241.478 234.164C238.268 235.056 235.071 235.99 231.951 236.953L244.522 245.488L241.478 234.164Z" fill="#FFB7D5"/>
<path d="M220.736 311.109L214.078 297.319L210.749 312.537L198.387 311.588L209.796 321.575L202.664 338.22L215.046 326.678L225.308 338.509L222.164 320.622L232.625 306.832L220.736 311.109Z" fill="#FFB7D5"/>
<path d="M192.508 415.62C198.796 413.885 211.068 409.417 208.849 404.538C206.781 399.985 194.784 407.857 190.691 411.362C189.658 409.466 188.339 407.742 186.779 406.25C174.364 412.571 170.006 420.225 170.656 427.262H241.479C242.285 427.262 243.059 426.942 243.629 426.372C244.199 425.802 244.519 425.028 244.519 424.222C244.519 423.416 244.199 422.643 243.629 422.073C243.059 421.503 242.285 421.183 241.479 421.183H193.632C193.454 419.294 193.077 417.43 192.508 415.62Z" fill="#30242A"/>
<path d="M241.478 301.459L229.234 301.289" stroke="#A15842" stroke-width="4" stroke-miterlimit="10" stroke-linecap="round"/>
<path d="M250.584 232.087C237.899 235.321 224.341 239.29 214.07 243.577C192.162 252.753 188.61 267.814 190.739 303.133" stroke="#A15842" stroke-width="4" stroke-miterlimit="10" stroke-linecap="round"/>
<path d="M411.568 229.313H399.922V427.262H411.568V229.313Z" fill="#FFBE21"/>
<path d="M411.568 232.035H399.922" stroke="#A15842" stroke-width="4" stroke-miterlimit="10"/>
<path d="M242.612 80.4637C235.973 79.5153 220.765 86.6521 220.263 100.76C219.76 114.868 232.355 119.401 234.37 120.411L263.596 115.873L265.611 83.6266L242.612 80.4637Z" fill="#A15842"/>
<path d="M294.244 45.4292C306.789 45.4292 316.958 35.2595 316.958 22.7146C316.958 10.1697 306.789 0 294.244 0C281.699 0 271.529 10.1697 271.529 22.7146C271.529 35.2595 281.699 45.4292 294.244 45.4292Z" fill="#A15842"/>
<path d="M279.51 38.3351C280.894 38.9753 269.233 11.3052 263.282 15.6205C257.682 19.694 272.477 35.0915 279.51 38.3351Z" fill="#30242A"/>
<path d="M280.156 40.0279C281.427 41.5454 311.178 31.1365 307.062 25.133C303.126 19.3571 278.885 38.5057 280.156 40.0279Z" fill="#30242A"/>
<path d="M319.651 116.129C319.651 116.129 339.625 99.4842 326.764 80.9379C318.579 69.1159 296.325 73.8248 296.325 73.8248C296.865 67.3329 298.629 48.6301 284.564 38.354C270.499 28.0778 252.655 33.4886 246.153 41.5975C239.652 49.7065 241.288 64.8575 239.126 75.6742C236.963 86.4909 238.405 93.8459 245.072 97.3076C251.137 100.456 258.274 98.5547 258.274 98.5547L257.515 109.969C257.515 109.969 243.763 110.486 235.337 113.535C215.031 120.885 179.356 171.294 179.356 171.294C157.007 170.345 136.08 169.397 136.08 169.397L147.02 201.738C147.02 201.738 174.6 210.772 194.574 205.532C214.837 200.225 234.047 171.768 234.047 171.768L240.686 190.788L229.272 222.65H328.666L312.021 193.164C314.899 167.016 319.651 116.129 319.651 116.129Z" fill="#EAA58B"/>
<path d="M287.713 108.783L261.632 156.076L250.962 110.443C246.272 110.917 240.022 111.837 235.384 113.516C215.031 120.885 179.356 171.294 179.356 171.294C157.007 170.345 136.08 169.397 136.08 169.397L147.02 201.738C147.02 201.738 174.6 210.772 194.574 205.532C214.837 200.225 234.047 171.768 234.047 171.768L240.686 190.788L229.272 222.65H328.666L312.021 193.169C314.866 167.012 319.608 116.124 319.608 116.124C315.205 113.444 310.384 111.52 305.344 110.434C299.668 109.153 293.427 109.917 287.713 108.783Z" fill="#4756DF"/>
<path d="M152.645 219.326H235.006L216.279 160.183C215.729 158.44 214.637 156.918 213.163 155.837C211.688 154.757 209.908 154.175 208.08 154.175H138.476C137.123 154.174 135.79 154.492 134.583 155.104C133.377 155.715 132.332 156.603 131.533 157.694C130.734 158.785 130.204 160.05 129.986 161.385C129.767 162.719 129.867 164.087 130.277 165.376L145.755 214.286C146.219 215.749 147.137 217.026 148.376 217.932C149.615 218.838 151.11 219.327 152.645 219.326Z" fill="#30242A"/>
<path d="M164.917 180.93C167.103 177.942 177.019 185.833 177.749 186.483C178.129 185.833 183.293 177.947 187.077 180.93C190.363 183.519 183.141 195.085 181.22 198.034C181.14 198.124 181.041 198.195 180.932 198.244C180.822 198.293 180.703 198.318 180.583 198.318C180.462 198.318 180.343 198.293 180.233 198.244C180.124 198.195 180.025 198.124 179.945 198.034C176.44 195.085 163.02 183.519 164.917 180.93Z" fill="#A15842"/>
<path d="M176.932 182.93C177.759 182.672 177.791 180.409 177.002 177.876C176.213 175.343 174.902 173.499 174.075 173.757C173.247 174.015 173.216 176.277 174.005 178.81C174.794 181.343 176.104 183.187 176.932 182.93Z" fill="#A15842"/>
<path d="M282.829 212.668C283.068 213.434 283.123 214.244 282.991 215.034C282.859 215.825 282.543 216.573 282.068 217.219C281.594 217.865 280.975 218.391 280.26 218.753C279.545 219.116 278.756 219.306 277.954 219.307H152.645C151.11 219.308 149.614 218.82 148.376 217.913C147.137 217.007 146.219 215.73 145.754 214.267L145.242 212.65L282.829 212.668Z" fill="#30242A"/>
<path d="M431.637 219.326H64.5V231.215H431.637V219.326Z" fill="#FFBE21"/>
<path d="M358.367 284.473L365.992 254.65H321.511C311.601 254.651 301.974 257.95 294.147 264.027C286.32 270.104 280.738 278.614 278.282 288.215L273.113 308.416H327.529C334.598 308.415 341.465 306.062 347.049 301.727C352.632 297.392 356.614 291.321 358.367 284.473Z" fill="#FFB7D5"/>
<path d="M274.166 300.596L272.406 308.032" stroke="#A15842" stroke-width="4" stroke-linecap="round" stroke-linejoin="round"/>
<path d="M132.117 171.109C126.583 173.873 123.818 178.483 123.818 181.712C123.818 186.426 128.617 187.313 128.617 187.313C128.617 187.313 125.037 192.941 131.263 195.583C131.263 195.583 131.263 201.378 137.063 201.378C137.063 201.378 136.295 205.897 142.346 206.324C148.397 206.75 154.623 203.592 155.149 201.548C155.752 199.135 154.125 197.114 149.734 196.474C149.734 196.474 155.661 193.705 154.723 190.21C153.784 186.715 149.777 186.796 149.777 186.796C149.777 186.796 153.613 184.496 151.564 181.105C149.516 177.715 145.599 178.891 145.599 178.891C145.599 178.891 146.623 176.52 144.831 174.713C142.697 172.579 133.521 175.272 133.521 175.272L132.117 171.109Z" fill="#EAA58A"/>
<path d="M137.105 201.6C142.099 200.403 146.944 198.654 151.55 196.384" stroke="#A15842" stroke-width="4" stroke-miterlimit="10" stroke-linecap="round"/>
<path d="M131.248 195.554C138.171 193.656 144.782 190.76 150.871 186.957" stroke="#A15842" stroke-width="4" stroke-miterlimit="10" stroke-linecap="round"/>
<path d="M128.143 187.986C134.558 186.088 140.62 183.151 146.087 179.294" stroke="#A15842" stroke-width="4" stroke-miterlimit="10" stroke-linecap="round"/>
<path d="M326.79 80.9379C318.605 69.1159 296.35 73.8248 296.35 73.8248C296.891 67.3329 298.655 48.6301 284.59 38.354C270.525 28.0778 252.68 33.4886 246.179 41.5975C243.533 44.917 242.238 49.384 241.484 54.2589C245.8 54.9845 252.13 53.5002 252.13 53.5002C260.785 63.2357 268.538 64.7816 268.538 64.7816C274.594 58.726 285.216 58.9251 286.942 68.1011C288.735 77.6279 273.517 81.91 273.517 81.91C273.517 81.91 272.095 99.029 279.682 105.213C282.011 107.058 284.764 108.292 287.691 108.802C293.382 109.936 299.646 109.172 305.365 110.443C310.404 111.53 315.226 113.453 319.629 116.134C321.367 114.603 322.954 112.91 324.371 111.079C329.36 104.753 335.326 93.2673 326.79 80.9379Z" fill="#A15842"/>
<path d="M261.159 50.029C258.313 52.4001 254.994 53.8227 251.172 54.7711" stroke="#EAA58B" stroke-width="4" stroke-miterlimit="10" stroke-linecap="round"/>
<path d="M258.119 99.6218C260.327 98.8852 262.457 97.9321 264.478 96.7766" stroke="#A15842" stroke-width="4" stroke-miterlimit="10" stroke-linecap="round"/>
<path d="M274.1 72.3452L278.424 69.6422" stroke="#A15842" stroke-width="4" stroke-miterlimit="10" stroke-linecap="round"/>
<path d="M249.285 85.0399C250.181 85.5947 253.553 86.0262 254.89 83.4513" stroke="#A15842" stroke-width="4" stroke-miterlimit="10" stroke-linecap="round"/>
<path d="M258.094 72.8717C258.99 72.8717 259.716 72.1456 259.716 71.2499C259.716 70.3542 258.99 69.6281 258.094 69.6281C257.199 69.6281 256.473 70.3542 256.473 71.2499C256.473 72.1456 257.199 72.8717 258.094 72.8717Z" fill="#30242A"/>
<path d="M244.651 70.7234C245.547 70.7234 246.273 69.9973 246.273 69.1016C246.273 68.2059 245.547 67.4798 244.651 67.4798C243.755 67.4798 243.029 68.2059 243.029 69.1016C243.029 69.9973 243.755 70.7234 244.651 70.7234Z" fill="#30242A"/>
<path d="M249.219 75.3661C248.896 76.3856 248.616 77.4953 248.801 77.8652C249.055 78.3339 249.441 78.718 249.911 78.9701" stroke="#A15842" stroke-width="4" stroke-miterlimit="10" stroke-linecap="round"/>
<path d="M276.134 88.236C279.272 88.236 281.815 85.6925 281.815 82.555C281.815 79.4174 279.272 76.8739 276.134 76.8739C272.997 76.8739 270.453 79.4174 270.453 82.555C270.453 85.6925 272.997 88.236 276.134 88.236Z" fill="#F5EBDD"/>
<path d="M248.805 70.0135C249.788 64.9619 246.898 60.1496 242.35 59.2648C237.802 58.38 233.319 61.7578 232.336 66.8094C231.353 71.8609 234.243 76.6733 238.791 77.5581C243.339 78.4429 247.822 75.0651 248.805 70.0135Z" stroke="#30242A" stroke-width="4" stroke-miterlimit="10" stroke-linecap="round"/>
<path d="M269.408 72.54C270.391 67.4884 267.501 62.676 262.954 61.7912C258.406 60.9064 253.923 64.2842 252.94 69.3358C251.957 74.3874 254.847 79.1998 259.395 80.0846C263.942 80.9694 268.426 77.5916 269.408 72.54Z" stroke="#30242A" stroke-width="4" stroke-miterlimit="10" stroke-linecap="round"/>
<path d="M249.193 69.2486L252.47 69.5995" stroke="#30242A" stroke-width="4" stroke-miterlimit="10" stroke-linecap="round"/>
<path d="M297.436 74.4508L296.492 80.5206" stroke="#30242A" stroke-width="4" stroke-miterlimit="10" stroke-linecap="round"/>
<path d="M228.822 159.405L233.413 172.764" stroke="#30242A" stroke-width="4" stroke-linecap="round" stroke-linejoin="round"/>
<path d="M253.073 189.84H241.004" stroke="#30242A" stroke-width="4" stroke-linecap="round" stroke-linejoin="round"/>
<path d="M262.586 155.602L266.389 174.148V191.267" stroke="#30242A" stroke-width="4" stroke-linecap="round" stroke-linejoin="round"/>
<path d="M237.29 113.103L244.513 129.445L235.953 128.496L266.388 174.148" stroke="#30242A" stroke-width="4" stroke-linecap="round" stroke-linejoin="round"/>
<path d="M307.659 111.159L295.4 128.496L306.815 127.543L264.961 164.636" stroke="#30242A" stroke-width="4" stroke-linecap="round" stroke-linejoin="round"/>
<path d="M314.033 169.293L304.914 156.555" stroke="#30242A" stroke-width="4" stroke-linecap="round" stroke-linejoin="round"/>
<path d="M324.584 216.239C319.619 214.584 310.709 211.388 305.336 208.178" stroke="#30242A" stroke-width="4" stroke-linecap="round" stroke-linejoin="round"/>
<path d="M187.632 98.2419C192.784 98.2419 196.96 94.0657 196.96 88.9142C196.96 83.7626 192.784 79.5865 187.632 79.5865C182.481 79.5865 178.305 83.7626 178.305 88.9142C178.305 94.0657 182.481 98.2419 187.632 98.2419Z" fill="#FFB7D5"/>
<path d="M159.755 51.7932L154.324 45.2448C153.488 44.2369 151.993 44.0974 150.985 44.9333L150.869 45.0302C149.861 45.8661 149.721 47.3609 150.557 48.3689L155.988 54.9172C156.824 55.9252 158.319 56.0646 159.327 55.2287L159.443 55.1318C160.451 54.2959 160.591 52.8011 159.755 51.7932Z" fill="#4756DF"/>
<path d="M169.522 59.7503L164.059 53.1588L65.8642 134.58C65.0079 135.291 64.4689 136.313 64.3657 137.421C64.2626 138.529 64.6037 139.633 65.3142 140.489L65.4232 140.622C65.7747 141.046 66.2062 141.396 66.6932 141.653C67.1801 141.91 67.713 142.069 68.2612 142.12C68.8095 142.171 69.3624 142.114 69.8885 141.951C70.4145 141.788 70.9034 141.524 71.3271 141.172L102.027 115.707V205.062H110.596V108.594L169.522 59.7503Z" fill="#3EC1F3"/>
<path d="M153.697 61.6472L156.433 64.9666C157.386 66.1183 158.111 67.4413 158.567 68.8646" stroke="#4756DF" stroke-width="4" stroke-miterlimit="10"/>
<path d="M106.31 117.684C112.483 117.684 117.487 112.68 117.487 106.507C117.487 100.334 112.483 95.3301 106.31 95.3301C100.137 95.3301 95.1328 100.334 95.1328 106.507C95.1328 112.68 100.137 117.684 106.31 117.684Z" fill="#4756DF"/>
<path d="M106.31 110.804C108.683 110.804 110.606 108.88 110.606 106.507C110.606 104.135 108.683 102.211 106.31 102.211C103.937 102.211 102.014 104.135 102.014 106.507C102.014 108.88 103.937 110.804 106.31 110.804Z" fill="#3EC1F3"/>
<path d="M195.292 83.6173L180.994 95.4346" stroke="#A15842" stroke-width="4" stroke-miterlimit="10"/>
<path d="M176.767 58.5553C173.761 58.2021 171.006 56.7042 169.076 54.3728L165.282 49.7872C163.941 48.1729 162.014 47.1568 159.925 46.9621C157.836 46.7674 155.754 47.41 154.138 48.7487C153.338 49.4118 152.677 50.226 152.192 51.1447C151.707 52.0635 151.408 53.0687 151.311 54.1031C151.215 55.1375 151.323 56.1808 151.63 57.1734C151.937 58.1659 152.436 59.0883 153.1 59.8878L156.893 64.4877C158.815 66.8124 159.771 69.7866 159.563 72.7958L158.615 86.6617C158.145 93.4461 159.867 100.202 163.527 105.934L164.741 107.83L210.232 70.0976L208.601 68.5659C203.65 63.9075 197.333 60.9634 190.581 60.1676L176.767 58.5553Z" fill="#3EC1F3"/>
<path d="M110.597 205.062H102.028L89.3614 208.514C86.9899 209.162 84.8969 210.57 83.405 212.524C81.9131 214.478 81.1051 216.868 81.1055 219.326H131.514C131.514 216.868 130.705 214.477 129.212 212.523C127.72 210.569 125.626 209.161 123.253 208.514L110.597 205.062Z" fill="#3EC1F3"/>
<path d="M201.601 63.3875L159.971 97.796" stroke="#4756DF" stroke-width="4" stroke-miterlimit="10" stroke-linecap="round"/>
<path d="M101.82 204.08H110.598" stroke="#4756DF" stroke-width="4" stroke-miterlimit="10" stroke-linecap="round"/>
<path d="M82.7695 213.399H129.564" stroke="#4756DF" stroke-width="4" stroke-miterlimit="10" stroke-linecap="round"/>
<path d="M352.473 341.663C353.421 333.601 352.947 315.505 342.486 301.715C332.025 287.925 346.279 293.654 350.547 297.447C357.376 303.517 363.389 309.336 368.619 328.835L352.473 341.663Z" fill="#30242A"/>
<path d="M478.787 427.262H534.616V425.437C534.615 422.863 533.591 420.395 531.771 418.576C529.951 416.756 527.483 415.734 524.909 415.734H478.498L478.787 427.262Z" fill="#A15842"/>
<path d="M342.599 373.961L354.374 427.262H376.254V423.943C376.254 421.803 375.405 419.75 373.894 418.234C372.383 416.718 370.332 415.864 368.192 415.858C368.192 415.858 379.127 407.658 385.785 399.573C385.785 399.573 397.199 413.482 413.37 411.101L414.541 416.792C415.151 419.745 416.759 422.399 419.095 424.306C421.431 426.213 424.353 427.257 427.369 427.262H480.399C503.92 427.262 515.491 423.672 516.155 410.281C516.175 409.77 516.092 409.26 515.911 408.782C515.729 408.304 515.453 407.868 515.099 407.5C514.744 407.131 514.319 406.838 513.849 406.638C513.378 406.438 512.872 406.335 512.361 406.335H497.556C496.946 406.336 496.343 406.2 495.792 405.936C495.242 405.673 494.757 405.289 494.374 404.813L488.072 396.993C486.204 394.679 483.711 392.95 480.889 392.011C478.067 391.072 475.035 390.963 472.153 391.697L459.477 394.935C459.477 394.935 437.019 362.661 416.675 340.245C397.233 318.844 360.662 316.534 346.255 344.408C341.624 353.53 340.33 363.986 342.599 373.961Z" fill="#A15842"/>
<path d="M475.169 427.262V425.437C475.169 424.162 474.917 422.9 474.43 421.723C473.942 420.545 473.227 419.475 472.325 418.574C471.424 417.673 470.354 416.959 469.176 416.472C467.998 415.984 466.736 415.734 465.462 415.734H458.998" stroke="#30242A" stroke-width="4" stroke-miterlimit="10"/>
<path d="M386.668 399.952C389.987 396.002 401.316 381.458 400.505 367.232C399.638 352.01 390.519 343.929 390.519 343.929" stroke="#30242A" stroke-width="2" stroke-miterlimit="10" stroke-linecap="round"/>
<path d="M410.492 391.004C410.492 391.004 411.099 402.257 412.318 410.66" stroke="#30242A" stroke-width="2" stroke-miterlimit="10" stroke-linecap="round"/>
<path d="M364.84 422.392V426.788" stroke="#30242A" stroke-width="2" stroke-miterlimit="10" stroke-linecap="round"/>
<path d="M370.07 422.392V426.788" stroke="#30242A" stroke-width="2" stroke-miterlimit="10" stroke-linecap="round"/>
<path d="M464.707 422.392V426.788" stroke="#30242A" stroke-width="2" stroke-miterlimit="10" stroke-linecap="round"/>
<path d="M469.938 422.392V426.788" stroke="#30242A" stroke-width="2" stroke-miterlimit="10" stroke-linecap="round"/>
<path d="M483.965 409.55C485.146 409.55 486.104 408.593 486.104 407.412C486.104 406.231 485.146 405.273 483.965 405.273C482.784 405.273 481.826 406.231 481.826 407.412C481.826 408.593 482.784 409.55 483.965 409.55Z" fill="#30242A"/>
<path d="M472.296 391.654V391.597L459.459 394.916L472.135 391.678L472.296 391.654Z" fill="#30242A"/>
<path d="M440.704 415.948C436.986 417.845 431.732 421.558 432.168 427.182H452.815L457.154 420.339C457.863 419.22 458.844 418.298 460.004 417.659C461.165 417.02 462.468 416.684 463.793 416.683H465.173L472.248 391.796L472.144 391.687L459.468 394.926L447.333 410.471C445.547 412.756 443.285 414.625 440.704 415.948Z" fill="#30242A"/>
<path d="M410.548 351.863C410.548 351.863 404.805 371.742 423.351 379.249C432.755 383.042 440.565 380.164 445.985 376.403C437.796 365.497 426.96 351.612 416.67 340.269C414.089 337.43 411.19 334.898 408.03 332.724C405.222 336.546 402.149 346.002 410.548 351.863Z" fill="#EAA58B"/>
<path d="M363.174 366.279C367.509 366.279 371.023 362.765 371.023 358.431C371.023 354.096 367.509 350.582 363.174 350.582C358.84 350.582 355.326 354.096 355.326 358.431C355.326 362.765 358.84 366.279 363.174 366.279Z" fill="#EAA58B"/>
<path d="M512.381 406.335H509.536C509.379 407.129 509.4 407.947 509.596 408.731C509.793 409.516 510.161 410.247 510.674 410.872C511.186 411.498 511.831 412.002 512.561 412.349C513.292 412.696 514.09 412.877 514.899 412.879C515.233 412.879 515.566 412.848 515.895 412.785C516.039 411.957 516.133 411.12 516.174 410.281C516.195 409.77 516.112 409.26 515.93 408.782C515.749 408.304 515.473 407.868 515.118 407.5C514.764 407.131 514.339 406.838 513.868 406.638C513.398 406.438 512.892 406.335 512.381 406.335Z" fill="#30242A"/>
<path d="M523.676 422.392V426.679" stroke="#30242A" stroke-width="2" stroke-miterlimit="10" stroke-linecap="round"/>
<path d="M528.906 422.392V426.679" stroke="#30242A" stroke-width="2" stroke-miterlimit="10" stroke-linecap="round"/>
<path d="M494.977 426.693C506.604 425.522 513.537 422.373 516.055 415.672" stroke="#30242A" stroke-width="2" stroke-linecap="round" stroke-linejoin="round"/>
<path d="M305.389 177.198C299.537 176.674 293.653 176.609 287.791 177.003C279.407 177.691 268.135 179.886 263.606 182.077C259.077 184.268 241.736 192.002 246.407 194.596C250.674 196.967 259.627 193.401 259.627 193.401C259.627 193.401 250.693 201.615 249.157 205.053C247.62 208.491 252.699 210.421 252.699 210.421C254.037 216.291 260.021 213.769 260.021 213.769C263.791 221.788 284.158 204.413 284.158 204.413C289.004 204.916 293.897 204.71 298.683 203.801C298.683 203.801 301.263 205.247 305.403 207.258L305.389 177.198Z" fill="#EAA58A"/>
<path d="M356.269 217.425C394.315 199.353 339.165 131.83 319.651 116.129L308.716 160.359L322.506 179.379C316.464 178.336 310.688 177.62 305.387 177.198V207.258C317.46 213.128 342.83 223.827 356.269 217.425Z" fill="#4756DF"/>
<path d="M257.805 193.899C261.181 191.106 266.786 186.592 270.969 183.87" stroke="#A15842" stroke-width="2" stroke-miterlimit="10" stroke-linecap="round"/>
<path d="M275.579 190.542C265.862 196.835 257.009 205.242 252.627 209.643" stroke="#A15842" stroke-width="2" stroke-miterlimit="10" stroke-linecap="round"/>
<path d="M279.89 197.66C273.251 202.217 265.545 209.126 260.514 213.868" stroke="#A15842" stroke-width="2" stroke-miterlimit="10" stroke-linecap="round"/>
<path d="M394.032 195.104C394.751 195.105 395.441 195.391 395.949 195.9C396.457 196.408 396.744 197.097 396.745 197.816V198.219C396.744 198.938 396.457 199.627 395.949 200.136C395.441 200.644 394.751 200.93 394.032 200.932H380.057V195.104H394.032ZM394.032 191.31H376.776C376.708 191.31 376.641 191.323 376.579 191.349C376.516 191.375 376.46 191.414 376.412 191.462C376.364 191.51 376.327 191.567 376.301 191.629C376.276 191.692 376.263 191.759 376.264 191.827V204.227C376.264 204.363 376.318 204.494 376.414 204.59C376.51 204.686 376.64 204.74 376.776 204.74H394.032C394.888 204.74 395.735 204.571 396.525 204.243C397.316 203.915 398.034 203.435 398.638 202.829C399.242 202.223 399.721 201.504 400.047 200.713C400.373 199.922 400.54 199.075 400.538 198.219V197.802C400.538 196.076 399.853 194.422 398.633 193.201C397.413 191.981 395.758 191.296 394.032 191.296V191.31Z" fill="#3EC1F3"/>
<path d="M373.167 189.266C359.036 189.266 352.506 178.004 352.506 178.004L361.99 219.326H384.316L393.8 178.004C391.597 181.476 388.548 184.331 384.939 186.301C381.33 188.272 377.279 189.292 373.167 189.266Z" fill="#3EC1F3"/>
<path d="M373.167 189.266C377.284 189.297 381.34 188.279 384.955 186.308C388.57 184.338 391.623 181.48 393.828 178.004H352.506C352.506 178.004 359.036 189.266 373.167 189.266Z" fill="#30242A"/>
</svg>
