<svg width="179" height="80" viewBox="0 0 179 80" fill="none" xmlns="http://www.w3.org/2000/svg">
<path d="M18.0898 28.5117C18.0898 29.8477 17.8555 31.2188 17.3867 32.625C16.9414 34.0312 16.2617 35.3672 15.3477 36.6328C14.457 37.875 13.3438 39 12.0078 40.0078C10.6953 40.9922 9.17188 41.7422 7.4375 42.2578C7.67188 42.8672 7.97656 43.4531 8.35156 44.0156C8.75 44.5547 9.21875 45.0234 9.75781 45.4219C10.2969 45.8203 10.918 46.1367 11.6211 46.3711C12.3477 46.6055 13.1797 46.7227 14.1172 46.7227C15.5234 46.7227 16.7305 46.4648 17.7383 45.9492C18.7461 45.4102 19.5898 44.707 20.2695 43.8398C20.9727 42.9727 21.5352 42 21.957 40.9219C22.3789 39.8438 22.6953 38.7539 22.9062 37.6523C23.0703 36.8555 23.3984 36.3281 23.8906 36.0703C24.4062 35.7891 24.9219 35.7188 25.4375 35.8594C25.9766 36 26.4336 36.3047 26.8086 36.7734C27.207 37.2188 27.3711 37.7578 27.3008 38.3906C27.207 39.1172 27.043 39.9492 26.8086 40.8867C26.5977 41.8242 26.2695 42.7734 25.8242 43.7344C25.3789 44.6953 24.8047 45.6445 24.1016 46.582C23.4219 47.4961 22.5781 48.3164 21.5703 49.043C20.5625 49.7695 19.3789 50.3555 18.0195 50.8008C16.6602 51.2461 15.1016 51.4688 13.3438 51.4688C11.7031 51.4688 10.1094 51.1406 8.5625 50.4844C7.03906 49.8516 5.67969 48.9375 4.48438 47.7422C3.3125 46.5234 2.36328 45.0352 1.63672 43.2773C0.933594 41.4961 0.582031 39.4805 0.582031 37.2305C0.582031 34.957 0.898438 32.8477 1.53125 30.9023C2.16406 28.9336 2.99609 27.2344 4.02734 25.8047C5.05859 24.375 6.23047 23.2617 7.54297 22.4648C8.85547 21.6445 10.2031 21.2344 11.5859 21.2344C12.5938 21.2344 13.4961 21.4102 14.293 21.7617C15.1133 22.1133 15.8047 22.6172 16.3672 23.2734C16.9297 23.9062 17.3516 24.668 17.6328 25.5586C17.9375 26.4492 18.0898 27.4336 18.0898 28.5117ZM6.48828 37.0195C6.48828 37.2305 6.5 37.4414 6.52344 37.6523C6.54688 37.8633 6.55859 38.0859 6.55859 38.3203C7.44922 37.8984 8.25781 37.3594 8.98438 36.7031C9.71094 36.0469 10.332 35.2969 10.8477 34.4531C11.3633 33.6094 11.7617 32.6953 12.043 31.7109C12.3242 30.7031 12.4648 29.6602 12.4648 28.582C12.4648 27.7852 12.3242 27.1641 12.043 26.7188C11.7852 26.2734 11.4219 26.0508 10.9531 26.0508C10.3672 26.0508 9.83984 26.25 9.37109 26.6484C8.92578 27.0469 8.52734 27.5742 8.17578 28.2305C7.84766 28.8633 7.56641 29.5898 7.33203 30.4102C7.12109 31.207 6.94531 32.0156 6.80469 32.8359C6.66406 33.6562 6.57031 34.4414 6.52344 35.1914C6.47656 35.918 6.46484 36.5273 6.48828 37.0195Z" fill="#319988"/>
<path d="M28.4555 28.1602C28.7133 27.668 28.9594 27.0117 29.1938 26.1914C29.4516 25.3477 29.6859 24.4219 29.8969 23.4141C30.1313 22.4062 30.3422 21.3516 30.5297 20.25C30.7172 19.1484 30.8813 18.0703 31.0219 17.0156C31.1625 15.9609 31.268 14.9766 31.3383 14.0625C31.432 13.125 31.4789 12.3281 31.4789 11.6719C31.4789 9.28125 31.3031 7.53516 30.9516 6.43359C30.6 5.30859 30.1313 4.74609 29.5453 4.74609C29.3578 4.74609 29.1938 4.83984 29.0531 5.02734C28.9125 5.21484 28.7953 5.46094 28.7016 5.76562C28.6078 6.04688 28.5375 6.36328 28.4906 6.71484C28.4672 7.04297 28.4555 7.34766 28.4555 7.62891V28.1602ZM38.6859 39.0234C38.8266 38.3203 39.0375 37.8164 39.3187 37.5117C39.6234 37.1836 39.9398 37.0078 40.268 36.9844C40.6195 36.9375 40.9711 37.0195 41.3227 37.2305C41.6742 37.418 41.9789 37.6758 42.2367 38.0039C42.4945 38.332 42.682 38.707 42.7992 39.1289C42.9398 39.5273 42.9633 39.9258 42.8695 40.3242C42.5414 41.2852 42.0727 42.4102 41.4633 43.6992C40.8539 44.9883 40.0805 46.207 39.143 47.3555C38.2055 48.5039 37.1039 49.4766 35.8383 50.2734C34.5727 51.0703 33.1195 51.4688 31.4789 51.4688C30.0961 51.4688 28.8773 51.2344 27.8227 50.7656C26.768 50.3203 25.8773 49.6875 25.1508 48.8672C24.4477 48.0234 23.9086 47.0273 23.5336 45.8789C23.182 44.707 23.0063 43.4062 23.0063 41.9766V9.21094C23.0063 7.875 23.1703 6.64453 23.4984 5.51953C23.85 4.37109 24.3188 3.39844 24.9047 2.60156C25.5141 1.78125 26.2172 1.14844 27.0141 0.703125C27.8109 0.234375 28.6547 0 29.5453 0C30.6 0 31.4906 0.199219 32.2172 0.597656C32.9437 0.972656 33.5414 1.47656 34.0102 2.10938C34.4789 2.74219 34.8422 3.46875 35.1 4.28906C35.3812 5.10938 35.5805 5.95312 35.6977 6.82031C35.8148 7.66406 35.8852 8.50781 35.9086 9.35156C35.932 10.1719 35.9437 10.9219 35.9437 11.6016C35.9437 13.3594 35.7797 15.2109 35.4516 17.1562C35.1234 19.0781 34.7016 20.9766 34.1859 22.8516C33.6937 24.7266 33.143 26.5312 32.5336 28.2656C31.9477 29.9766 31.3734 31.5 30.8109 32.8359C30.2719 34.1719 29.7797 35.2617 29.3344 36.1055C28.9125 36.9492 28.6195 37.4414 28.4555 37.582V41.7656C28.4555 43.2188 28.7602 44.4141 29.3695 45.3516C29.9789 46.2656 30.9516 46.7227 32.2875 46.7227C33.1078 46.7227 33.8695 46.4766 34.5727 45.9844C35.2992 45.4688 35.932 44.8359 36.4711 44.0859C37.0336 43.3125 37.5023 42.4805 37.8773 41.5898C38.2523 40.6758 38.5219 39.8203 38.6859 39.0234Z" fill="#319988"/>
<path d="M42.7938 14.8359C42.2078 14.8359 41.6453 14.7188 41.1063 14.4844C40.5906 14.25 40.1336 13.9336 39.7352 13.5352C39.3602 13.1367 39.0555 12.6797 38.8211 12.1641C38.5867 11.625 38.4695 11.0508 38.4695 10.4414C38.4695 9.80859 38.5867 9.22266 38.8211 8.68359C39.0555 8.14453 39.3602 7.6875 39.7352 7.3125C40.1336 6.91406 40.5906 6.60938 41.1063 6.39844C41.6453 6.16406 42.2078 6.04688 42.7938 6.04688C43.4266 6.04688 44.0125 6.16406 44.5516 6.39844C45.0906 6.60938 45.5477 6.91406 45.9227 7.3125C46.3211 7.6875 46.6258 8.14453 46.8367 8.68359C47.0711 9.22266 47.1883 9.80859 47.1883 10.4414C47.1883 11.0508 47.0711 11.625 46.8367 12.1641C46.6258 12.6797 46.3211 13.1367 45.9227 13.5352C45.5477 13.9336 45.0906 14.25 44.5516 14.4844C44.0125 14.7188 43.4266 14.8359 42.7938 14.8359ZM44.4461 43.418C44.4461 43.582 44.4578 43.8516 44.4813 44.2266C44.5047 44.5781 44.575 44.9414 44.6922 45.3164C44.8094 45.6914 44.9969 46.0195 45.2547 46.3008C45.5125 46.582 45.8758 46.7227 46.3445 46.7227C47.0477 46.7227 47.657 46.4648 48.1727 45.9492C48.7117 45.4336 49.1688 44.7891 49.5438 44.0156C49.9422 43.2422 50.2703 42.4102 50.5281 41.5195C50.7859 40.6055 50.9969 39.75 51.1609 38.9531C51.3016 38.2266 51.5125 37.6992 51.7938 37.3711C52.0984 37.043 52.4148 36.8672 52.743 36.8438C53.0945 36.7969 53.4344 36.8789 53.7625 37.0898C54.1141 37.3008 54.4188 37.582 54.6766 37.9336C54.9578 38.2617 55.157 38.6367 55.2742 39.0586C55.4148 39.4805 55.4383 39.8789 55.3445 40.2539C55.0164 41.4492 54.5828 42.7031 54.0438 44.0156C53.5281 45.3281 52.8602 46.5352 52.0398 47.6367C51.2195 48.7383 50.2352 49.6523 49.0867 50.3789C47.9383 51.1055 46.5906 51.4688 45.0438 51.4688C44.0828 51.4688 43.2273 51.2812 42.4773 50.9062C41.7273 50.5547 41.0945 50.0742 40.5789 49.4648C40.0633 48.8555 39.6648 48.1406 39.3836 47.3203C39.1258 46.5 38.9969 45.6328 38.9969 44.7188V25.4883C38.9969 24.8086 38.9383 24.3164 38.8211 24.0117C38.7273 23.707 38.6805 23.4258 38.6805 23.168C38.6805 22.8164 38.868 22.5352 39.243 22.3242C39.618 22.0898 40.0633 21.9727 40.5789 21.9727C41.7742 21.9727 42.7117 22.2891 43.3914 22.9219C44.0945 23.5312 44.4461 24.2695 44.4461 25.1367V43.418Z" fill="#319988"/>
<path d="M59.382 31.1133C59.382 29.6602 59.5344 28.4062 59.8391 27.3516C60.1672 26.2734 60.6125 25.3945 61.175 24.7148C61.7375 24.0117 62.382 23.4961 63.1086 23.168C63.8586 22.8398 64.6555 22.6758 65.4992 22.6758C66.4602 22.6758 67.3977 22.9102 68.3117 23.3789C69.2258 23.8477 70.0344 24.5625 70.7375 25.5234C71.4641 26.4844 72.0383 27.7031 72.4602 29.1797C72.9055 30.6562 73.1281 32.4023 73.1281 34.418C73.1281 35.8242 73.0344 37.2305 72.8469 38.6367C72.6828 40.0195 72.4133 41.3438 72.0383 42.6094C72.2961 42.7031 72.5422 42.7617 72.7766 42.7852C73.0344 42.7852 73.2922 42.7852 73.55 42.7852C74.3234 42.7852 75.0031 42.6445 75.5891 42.3633C76.1984 42.082 76.7141 41.707 77.1359 41.2383C77.5813 40.7695 77.9328 40.2188 78.1906 39.5859C78.4484 38.9531 78.6359 38.2852 78.7531 37.582C78.8 37.3008 78.9523 37.0664 79.2102 36.8789C79.4914 36.6914 79.8078 36.5625 80.1594 36.4922C80.5109 36.4219 80.8742 36.4219 81.2492 36.4922C81.6477 36.5625 81.9875 36.7266 82.2688 36.9844C82.55 37.2188 82.7492 37.5586 82.8664 38.0039C83.007 38.4258 83.007 38.9766 82.8664 39.6562C82.6555 40.6406 82.3039 41.5664 81.8117 42.4336C81.343 43.2773 80.7453 44.0273 80.0188 44.6836C79.2922 45.3398 78.4367 45.8555 77.4523 46.2305C76.468 46.6055 75.3664 46.793 74.1477 46.793C73.4914 46.793 72.8586 46.7578 72.2492 46.6875C71.6398 46.6172 71.0422 46.4883 70.4563 46.3008C69.5656 47.8477 68.4055 49.0898 66.9758 50.0273C65.5461 50.9883 63.7766 51.4688 61.6672 51.4688C60.0031 51.4688 58.5383 51.1758 57.2727 50.5898C56.0305 50.0039 54.9758 49.1836 54.1086 48.1289C53.2648 47.0508 52.6203 45.7734 52.175 44.2969C51.7531 42.8203 51.5422 41.2031 51.5422 39.4453V5.09766C51.5422 4.58203 51.4953 4.17188 51.4016 3.86719C51.3312 3.5625 51.2492 3.32812 51.1555 3.16406C51.0852 2.97656 51.0031 2.83594 50.9094 2.74219C50.8391 2.625 50.8039 2.50781 50.8039 2.39062C50.8039 2.25 50.8742 2.13281 51.0148 2.03906C51.1555 1.94531 51.343 1.86328 51.5773 1.79297C51.8117 1.72266 52.0578 1.67578 52.3156 1.65234C52.5969 1.60547 52.8664 1.58203 53.1242 1.58203C54.3195 1.58203 55.257 1.89844 55.9367 2.53125C56.6398 3.14062 56.9914 3.87891 56.9914 4.74609V38.4609C56.9914 39.6562 57.0969 40.7578 57.3078 41.7656C57.5187 42.7734 57.8352 43.6523 58.257 44.4023C58.6789 45.1289 59.2062 45.7031 59.8391 46.125C60.4953 46.5234 61.257 46.7227 62.1242 46.7227C63.0148 46.7227 63.7766 46.5 64.4094 46.0547C65.0422 45.5859 65.5695 44.9648 65.9914 44.1914C64.9602 43.4648 64.0344 42.6211 63.2141 41.6602C62.4172 40.6758 61.7258 39.6211 61.1398 38.4961C60.5773 37.3477 60.1437 36.1523 59.8391 34.9102C59.5344 33.6445 59.382 32.3789 59.382 31.1133ZM63.8469 30.832C63.8469 32.5664 64.1516 34.207 64.7609 35.7539C65.3938 37.3008 66.2375 38.6367 67.2922 39.7617C67.4328 38.918 67.5266 38.0859 67.5734 37.2656C67.6203 36.4219 67.6438 35.6602 67.6438 34.9805C67.6438 32.5664 67.3859 30.7031 66.8703 29.3906C66.3781 28.0781 65.8039 27.4219 65.1477 27.4219C64.6789 27.4219 64.3391 27.7383 64.1281 28.3711C63.9406 28.9805 63.8469 29.8008 63.8469 30.832Z" fill="#319988"/>
<path d="M94.5328 51.4688C93.6891 51.4688 92.8219 51.3398 91.9313 51.082C91.0641 50.8242 90.2672 50.3789 89.5406 49.7461C88.8375 49.1133 88.2516 48.2812 87.7828 47.25C87.3375 46.1953 87.1148 44.8711 87.1148 43.2773C87.1148 40.957 87.4195 38.5078 88.0289 35.9297C88.6617 33.3281 89.5641 30.4688 90.7359 27.3516H84.443C84.4195 28.0547 84.3727 28.9453 84.3023 30.0234C84.2555 31.1016 84.1617 32.25 84.0211 33.4688C83.8805 34.6875 83.693 35.918 83.4586 37.1602C83.2477 38.4023 82.9781 39.5508 82.65 40.6055C82.4156 41.3555 82.0406 41.7891 81.525 41.9062C81.0328 42.0234 80.5406 41.9414 80.0484 41.6602C79.5563 41.3555 79.1578 40.9219 78.8531 40.3594C78.5484 39.7969 78.4781 39.2109 78.6422 38.6016C78.8297 37.875 78.9938 36.9961 79.1344 35.9648C79.275 34.9102 79.3805 33.8086 79.4508 32.6602C79.5445 31.4883 79.6148 30.3281 79.6617 29.1797C79.7086 28.0078 79.7438 26.9648 79.7672 26.0508C78.8766 25.5586 78.1383 24.9375 77.5523 24.1875C76.9664 23.4141 76.6734 22.5 76.6734 21.4453C76.6734 20.9531 76.7672 20.5078 76.9547 20.1094C77.1656 19.6875 77.4352 19.3359 77.7633 19.0547C78.0914 18.75 78.4781 18.5273 78.9234 18.3867C79.3688 18.2227 79.8258 18.1406 80.2945 18.1406C80.7164 18.1406 81.15 18.1992 81.5953 18.3164C82.0641 18.4336 82.4977 18.6445 82.8961 18.9492C83.318 19.2539 83.693 19.6523 84.0211 20.1445C84.3492 20.6367 84.6188 21.2461 84.8297 21.9727C85.4156 22.043 85.9078 22.1016 86.3063 22.1484C86.7281 22.1719 87.0797 22.1953 87.3609 22.2188C87.6422 22.2422 87.8766 22.2539 88.0641 22.2539C88.2516 22.2539 88.4391 22.2539 88.6266 22.2539H92.3883C92.5992 22.2539 92.9039 22.3828 93.3023 22.6406C93.7242 22.8984 94.1344 23.2383 94.5328 23.6602C94.9313 24.0586 95.2594 24.4922 95.5172 24.9609C95.7984 25.4297 95.9039 25.875 95.8336 26.2969C95.8336 26.4375 95.7516 26.7773 95.5875 27.3164C95.4234 27.8555 95.2242 28.5352 94.9898 29.3555C94.7555 30.1758 94.4977 31.125 94.2164 32.2031C93.9352 33.2578 93.6773 34.3711 93.443 35.543C93.2086 36.7148 93.0094 37.9336 92.8453 39.1992C92.6813 40.4414 92.5992 41.6602 92.5992 42.8555C92.5992 43.3477 92.6578 43.8281 92.775 44.2969C92.8922 44.7656 93.068 45.1875 93.3023 45.5625C93.5367 45.9141 93.8297 46.1953 94.1813 46.4062C94.5563 46.6172 94.9898 46.7227 95.482 46.7227C96.3023 46.7227 97.0055 46.4648 97.5914 45.9492C98.1773 45.4336 98.6695 44.7891 99.068 44.0156C99.4664 43.2422 99.7828 42.4102 100.017 41.5195C100.275 40.6055 100.486 39.75 100.65 38.9531C100.791 38.2031 101.025 37.6641 101.353 37.3359C101.681 36.9844 102.021 36.8086 102.373 36.8086C102.654 36.8086 102.947 36.9023 103.252 37.0898C103.556 37.2539 103.826 37.4766 104.06 37.7578C104.318 38.0391 104.517 38.3555 104.658 38.707C104.822 39.0586 104.904 39.4102 104.904 39.7617C104.904 39.8789 104.892 39.9727 104.869 40.043C104.845 40.1133 104.834 40.1836 104.834 40.2539C104.505 41.4492 104.072 42.7031 103.533 44.0156C103.017 45.3281 102.349 46.5352 101.529 47.6367C100.709 48.7383 99.7242 49.6523 98.5758 50.3789C97.4273 51.1055 96.0797 51.4688 94.5328 51.4688Z" fill="#319988"/>
<path d="M121.457 46.7227C122.184 46.7227 122.805 46.4648 123.32 45.9492C123.859 45.4336 124.316 44.7891 124.691 44.0156C125.09 43.2422 125.406 42.4102 125.641 41.5195C125.898 40.6055 126.109 39.75 126.273 38.9531C126.438 38.2031 126.672 37.6641 126.977 37.3359C127.305 36.9844 127.656 36.8086 128.031 36.8086C128.312 36.8086 128.594 36.9023 128.875 37.0898C129.18 37.2539 129.449 37.4766 129.684 37.7578C129.941 38.0391 130.141 38.3555 130.281 38.707C130.445 39.0586 130.527 39.4102 130.527 39.7617C130.527 39.8086 130.527 39.8672 130.527 39.9375C130.527 40.0078 130.504 40.1133 130.457 40.2539C130.152 41.4492 129.73 42.7031 129.191 44.0156C128.676 45.3281 128.008 46.5352 127.188 47.6367C126.367 48.7383 125.371 49.6523 124.199 50.3789C123.051 51.1055 121.703 51.4688 120.156 51.4688C118.891 51.4688 117.789 51.1992 116.852 50.6602C115.914 50.1211 115.176 49.4062 114.637 48.5156C113.91 49.3359 113.031 50.0273 112 50.5898C110.992 51.1758 109.809 51.4688 108.449 51.4688C107.043 51.4688 105.801 51.1875 104.723 50.625C103.668 50.0625 102.777 49.3008 102.051 48.3398C101.324 47.3555 100.773 46.207 100.398 44.8945C100.047 43.5586 99.8711 42.1289 99.8711 40.6055C99.8711 37.6055 100.352 34.9102 101.312 32.5195C102.273 30.1289 103.551 28.1016 105.145 26.4375C106.738 24.75 108.555 23.4609 110.594 22.5703C112.656 21.6797 114.789 21.2344 116.992 21.2344C117.977 21.2344 118.773 21.5039 119.383 22.043C119.992 22.582 120.297 23.3203 120.297 24.2578C120.297 24.8672 120.227 25.3008 120.086 25.5586C119.969 25.793 119.734 25.9102 119.383 25.9102C119.055 25.9102 118.715 25.8867 118.363 25.8398C118.012 25.793 117.648 25.7695 117.273 25.7695C115.914 25.7695 114.531 26.0742 113.125 26.6836C111.719 27.2695 110.441 28.1836 109.293 29.4258C108.168 30.6445 107.242 32.2031 106.516 34.1016C105.789 35.9766 105.426 38.2148 105.426 40.8164C105.426 42.7148 105.789 44.1797 106.516 45.2109C107.242 46.2188 108.238 46.7227 109.504 46.7227C110.488 46.7227 111.309 46.3594 111.965 45.6328C112.621 44.8828 113.148 44.0039 113.547 42.9961V31.8867C113.547 31.5352 113.523 31.2422 113.477 31.0078C113.453 30.7734 113.418 30.5742 113.371 30.4102C113.348 30.2461 113.324 30.1055 113.301 29.9883C113.277 29.8477 113.266 29.7188 113.266 29.6016C113.266 29.2266 113.441 28.9336 113.793 28.7227C114.168 28.4883 114.613 28.3711 115.129 28.3711C116.324 28.3711 117.273 28.6875 117.977 29.3203C118.68 29.9297 119.031 30.668 119.031 31.5352V43.418C119.031 43.8164 119.078 44.2148 119.172 44.6133C119.266 44.9883 119.406 45.3398 119.594 45.668C119.781 45.9727 120.027 46.2305 120.332 46.4414C120.66 46.6289 121.035 46.7227 121.457 46.7227Z" fill="#319988"/>
<path d="M142.405 51.4688C141.561 51.4688 140.694 51.3398 139.803 51.082C138.936 50.8242 138.139 50.3789 137.413 49.7461C136.709 49.1133 136.123 48.2812 135.655 47.25C135.209 46.1953 134.987 44.8711 134.987 43.2773C134.987 40.957 135.291 38.5078 135.901 35.9297C136.534 33.3281 137.436 30.4688 138.608 27.3516H132.315C132.291 28.0547 132.245 28.9453 132.174 30.0234C132.127 31.1016 132.034 32.25 131.893 33.4688C131.752 34.6875 131.565 35.918 131.33 37.1602C131.12 38.4023 130.85 39.5508 130.522 40.6055C130.288 41.3555 129.913 41.7891 129.397 41.9062C128.905 42.0234 128.412 41.9414 127.92 41.6602C127.428 41.3555 127.03 40.9219 126.725 40.3594C126.42 39.7969 126.35 39.2109 126.514 38.6016C126.702 37.875 126.866 36.9961 127.006 35.9648C127.147 34.9102 127.252 33.8086 127.323 32.6602C127.416 31.4883 127.487 30.3281 127.534 29.1797C127.58 28.0078 127.616 26.9648 127.639 26.0508C126.748 25.5586 126.01 24.9375 125.424 24.1875C124.838 23.4141 124.545 22.5 124.545 21.4453C124.545 20.9531 124.639 20.5078 124.827 20.1094C125.037 19.6875 125.307 19.3359 125.635 19.0547C125.963 18.75 126.35 18.5273 126.795 18.3867C127.241 18.2227 127.698 18.1406 128.166 18.1406C128.588 18.1406 129.022 18.1992 129.467 18.3164C129.936 18.4336 130.37 18.6445 130.768 18.9492C131.19 19.2539 131.565 19.6523 131.893 20.1445C132.221 20.6367 132.491 21.2461 132.702 21.9727C133.288 22.043 133.78 22.1016 134.178 22.1484C134.6 22.1719 134.952 22.1953 135.233 22.2188C135.514 22.2422 135.748 22.2539 135.936 22.2539C136.123 22.2539 136.311 22.2539 136.498 22.2539H140.26C140.471 22.2539 140.776 22.3828 141.174 22.6406C141.596 22.8984 142.006 23.2383 142.405 23.6602C142.803 24.0586 143.131 24.4922 143.389 24.9609C143.67 25.4297 143.776 25.875 143.705 26.2969C143.705 26.4375 143.623 26.7773 143.459 27.3164C143.295 27.8555 143.096 28.5352 142.862 29.3555C142.627 30.1758 142.37 31.125 142.088 32.2031C141.807 33.2578 141.549 34.3711 141.315 35.543C141.08 36.7148 140.881 37.9336 140.717 39.1992C140.553 40.4414 140.471 41.6602 140.471 42.8555C140.471 43.3477 140.53 43.8281 140.647 44.2969C140.764 44.7656 140.94 45.1875 141.174 45.5625C141.409 45.9141 141.702 46.1953 142.053 46.4062C142.428 46.6172 142.862 46.7227 143.354 46.7227C144.174 46.7227 144.877 46.4648 145.463 45.9492C146.049 45.4336 146.541 44.7891 146.94 44.0156C147.338 43.2422 147.655 42.4102 147.889 41.5195C148.147 40.6055 148.358 39.75 148.522 38.9531C148.663 38.2031 148.897 37.6641 149.225 37.3359C149.553 36.9844 149.893 36.8086 150.245 36.8086C150.526 36.8086 150.819 36.9023 151.123 37.0898C151.428 37.2539 151.698 37.4766 151.932 37.7578C152.19 38.0391 152.389 38.3555 152.53 38.707C152.694 39.0586 152.776 39.4102 152.776 39.7617C152.776 39.8789 152.764 39.9727 152.741 40.043C152.717 40.1133 152.705 40.1836 152.705 40.2539C152.377 41.4492 151.944 42.7031 151.405 44.0156C150.889 45.3281 150.221 46.5352 149.401 47.6367C148.58 48.7383 147.596 49.6523 146.448 50.3789C145.299 51.1055 143.952 51.4688 142.405 51.4688Z" fill="#319988"/>
<path d="M174.532 38.9531C174.743 38.2031 174.989 37.6641 175.27 37.3359C175.552 36.9844 175.88 36.8086 176.255 36.8086C176.536 36.8086 176.829 36.9023 177.134 37.0898C177.438 37.2539 177.708 37.4766 177.942 37.7578C178.2 38.0391 178.399 38.3555 178.54 38.707C178.704 39.0586 178.786 39.4102 178.786 39.7617C178.786 39.8086 178.786 39.9023 178.786 40.043C178.786 40.1836 178.762 40.3242 178.716 40.4648C178.106 42.5508 177.391 44.4023 176.571 46.0195C175.774 47.6133 174.907 49.043 173.97 50.3086C173.055 51.5742 172.106 52.6992 171.122 53.6836C170.137 54.6914 169.153 55.6172 168.169 56.4609V68.9062C168.169 70.8047 167.946 72.3984 167.501 73.6875C167.079 75 166.516 76.0547 165.813 76.8516C165.11 77.6719 164.313 78.2578 163.423 78.6094C162.532 78.9609 161.63 79.1367 160.716 79.1367C159.708 79.1367 158.782 78.9141 157.938 78.4688C157.095 78.0469 156.356 77.4609 155.723 76.7109C155.114 75.9609 154.634 75.082 154.282 74.0742C153.954 73.0664 153.79 71.9883 153.79 70.8398C153.79 69.0117 154.024 67.3945 154.493 65.9883C154.985 64.582 155.641 63.293 156.462 62.1211C157.282 60.9492 158.231 59.8477 159.309 58.8164C160.387 57.8086 161.524 56.7773 162.72 55.7227V46.582C161.852 48.0352 160.845 49.2188 159.696 50.1328C158.548 51.0703 157.2 51.5391 155.653 51.5391C154.458 51.5391 153.38 51.293 152.419 50.8008C151.481 50.3086 150.684 49.6172 150.028 48.7266C149.372 47.8125 148.868 46.7227 148.516 45.457C148.188 44.168 148.024 42.7383 148.024 41.168C148.024 39.2695 148.153 37.3594 148.411 35.4375C148.692 33.5156 148.997 31.7812 149.325 30.2344C149.7 28.4297 150.134 26.6836 150.626 24.9961C150.743 24.6914 150.825 24.3867 150.872 24.082C150.942 23.7539 151.083 23.4609 151.294 23.2031C151.505 22.9453 151.833 22.7344 152.278 22.5703C152.747 22.4062 153.462 22.3242 154.423 22.3242C155.313 22.3242 155.887 22.4883 156.145 22.8164C156.403 23.1211 156.497 23.4844 156.427 23.9062C156.38 24.3281 156.239 24.7617 156.005 25.207C155.794 25.6523 155.653 26.0156 155.583 26.2969C155.255 27.6328 154.962 28.8516 154.704 29.9531C154.446 31.0547 154.223 32.168 154.036 33.293C153.872 34.3945 153.743 35.5547 153.649 36.7734C153.555 37.9688 153.509 39.3164 153.509 40.8164C153.509 42.7852 153.79 44.2734 154.352 45.2812C154.938 46.2891 155.759 46.793 156.813 46.793C157.54 46.793 158.208 46.5234 158.817 45.9844C159.45 45.4453 160.012 44.7305 160.505 43.8398C161.02 42.9258 161.466 41.8945 161.841 40.7461C162.216 39.5742 162.509 38.3555 162.72 37.0898V25.4883C162.72 24.8086 162.673 24.3164 162.579 24.0117C162.485 23.707 162.438 23.4258 162.438 23.168C162.438 22.8164 162.614 22.5352 162.966 22.3242C163.341 22.0898 163.786 21.9727 164.302 21.9727C165.497 21.9727 166.434 22.2891 167.114 22.9219C167.817 23.5312 168.169 24.2695 168.169 25.1367V50.4141C169.481 48.9609 170.688 47.3086 171.79 45.457C172.891 43.6055 173.805 41.4375 174.532 38.9531ZM160.716 74.6016C161.278 74.6016 161.7 74.3672 161.981 73.8984C162.262 73.4297 162.45 72.8789 162.544 72.2461C162.661 71.6367 162.72 71.0156 162.72 70.3828C162.72 69.75 162.72 69.2578 162.72 68.9062V61.207C161.548 62.3789 160.598 63.7031 159.872 65.1797C159.169 66.6562 158.817 68.4727 158.817 70.6289C158.817 71.7539 158.981 72.6914 159.309 73.4414C159.661 74.2148 160.13 74.6016 160.716 74.6016Z" fill="#319988"/>
</svg>
